<?xml version="1.0" standalone="no"?>
<!DOCTYPE svg PUBLIC "-//W3C//DTD SVG 20010904//EN"
 "http://www.w3.org/TR/2001/REC-SVG-20010904/DTD/svg10.dtd">
<svg version="1.0" xmlns="http://www.w3.org/2000/svg"
 width="860.000000pt" height="263.000000pt" viewBox="0 0 860.000000 263.000000"
 preserveAspectRatio="xMidYMid meet">

<g transform="translate(0.000000,263.000000) scale(0.100000,-0.100000)"
fill="#000000" stroke="none">
<path d="M1574 2204 c-254 -42 -669 -254 -907 -461 -226 -197 -373 -444 -353
-591 14 -103 98 -198 204 -228 115 -34 251 20 472 187 312 235 685 457 820
488 185 43 301 -33 331 -217 22 -130 -32 -308 -144 -475 -183 -274 -668 -648
-885 -683 -31 -5 -48 -2 -68 11 -23 15 -26 22 -21 57 8 59 64 135 207 283 135
139 160 175 160 225 0 67 -95 119 -193 105 -158 -20 -284 -156 -369 -395 -49
-138 2 -280 119 -332 54 -24 184 -18 274 12 220 74 544 295 785 535 143 143
208 228 293 387 219 406 160 815 -145 1000 -154 94 -367 128 -580 92z"/>
<path d="M4303 2209 c-110 -20 -173 -96 -173 -211 0 -143 129 -236 272 -194
36 10 65 27 90 53 45 47 58 79 58 147 0 131 -116 228 -247 205z"/>
<path d="M5890 2043 c-85 -13 -156 -25 -157 -26 0 -1 -2 -348 -4 -772 -2 -844
-5 -797 57 -902 32 -55 114 -117 190 -144 60 -21 224 -38 279 -29 l30 5 0 103
c0 95 -2 103 -20 107 -11 2 -44 9 -74 15 -141 28 -146 53 -136 617 l8 383 103
0 104 0 0 124 c0 144 8 136 -127 136 l-83 0 -2 143 c-1 78 0 170 1 205 2 34
-1 62 -5 61 -5 0 -79 -12 -164 -26z"/>
<path d="M7895 2044 c-71 -13 -136 -26 -142 -29 -17 -6 -19 -1425 -2 -1525 14
-87 41 -146 92 -198 85 -87 174 -120 343 -129 l111 -6 -1 111 -1 111 -40 6
c-70 11 -131 35 -156 61 l-24 26 -5 796 c-5 788 -5 797 -25 799 -11 1 -78 -10
-150 -23z"/>
<path d="M5300 1683 c-62 -9 -170 -38 -224 -60 -134 -52 -295 -173 -315 -236
-14 -46 -14 -44 -12 -654 l1 -553 160 0 160 0 0 570 0 570 38 19 c72 37 146
53 262 57 63 2 117 7 120 12 13 15 121 254 117 258 -18 18 -227 30 -307 17z"/>
<path d="M3266 1664 c-37 -7 -91 -21 -120 -30 -78 -25 -226 -96 -226 -107 0
-10 79 -208 85 -215 2 -2 25 6 52 18 89 41 216 80 277 86 74 8 162 -9 208 -39
41 -27 84 -114 91 -183 l6 -51 -217 -6 c-238 -7 -295 -17 -395 -70 -73 -38
-151 -123 -190 -205 -114 -244 -6 -527 250 -654 l86 -43 151 0 c113 0 167 5
215 18 144 39 250 95 348 182 l58 52 3 349 c2 192 -1 404 -6 471 -7 106 -12
130 -40 186 -58 117 -193 217 -330 246 -70 15 -220 12 -306 -5z m354 -972 c0
-183 -1 -189 -23 -210 -67 -63 -212 -86 -309 -49 -52 20 -112 80 -136 136 -25
59 -21 150 11 203 51 87 107 106 310 107 l147 1 0 -188z"/>
<path d="M6860 1654 c-154 -33 -270 -123 -348 -272 -105 -200 -142 -412 -108
-622 51 -311 221 -521 476 -586 97 -25 285 -15 405 21 96 28 254 101 261 119
3 7 -16 55 -40 108 l-46 97 -87 -36 c-166 -67 -286 -87 -378 -62 -138 37 -245
196 -262 390 l-6 67 162 7 c88 4 276 4 416 0 l255 -7 0 46 c0 80 -20 237 -40
320 -43 174 -140 309 -263 366 -121 57 -264 73 -397 44z m208 -249 c71 -30
108 -82 136 -192 9 -34 16 -66 16 -72 0 -8 -70 -11 -236 -11 l-236 0 7 37 c12
65 46 144 78 180 59 67 155 91 235 58z"/>
<path d="M4435 1635 c-5 -2 -63 -11 -127 -20 l-118 -17 0 -709 0 -710 158 3
157 3 2 728 2 727 -32 -1 c-18 0 -36 -2 -42 -4z"/>
</g>
</svg>
