<?xml version="1.0" standalone="no"?>
<!DOCTYPE svg PUBLIC "-//W3C//DTD SVG 20010904//EN"
 "http://www.w3.org/TR/2001/REC-SVG-20010904/DTD/svg10.dtd">
<svg version="1.0" xmlns="http://www.w3.org/2000/svg"
 width="225.000000pt" height="225.000000pt" viewBox="0 0 225.000000 225.000000"
 preserveAspectRatio="xMidYMid meet">

<g transform="translate(0.000000,225.000000) scale(0.100000,-0.100000)"
fill="#000000" stroke="none">
<path d="M862 1278 c-72 -116 -46 -288 57 -381 51 -46 83 -62 151 -76 133 -27
270 41 334 166 26 52 18 50 -21 -7 -25 -35 -56 -63 -93 -84 -49 -28 -64 -31
-135 -30 -95 0 -135 16 -200 75 -71 65 -100 139 -55 139 16 0 19 5 14 29 -4
17 1 41 11 60 16 32 16 32 -4 22 -11 -6 -29 -11 -40 -11 -26 0 -28 29 -6 89
17 49 13 52 -13 9z"/>
<path d="M1020 1212 c0 -10 -12 -22 -30 -29 -27 -10 -30 -15 -30 -57 0 -34 4
-48 16 -53 33 -12 49 11 54 78 4 50 9 65 23 67 15 3 17 -8 19 -105 0 -59 3
-93 5 -75 5 36 18 42 26 12 3 -12 13 -20 24 -19 16 1 16 2 1 6 -15 4 -18 17
-18 93 0 96 -3 100 -61 100 -21 0 -29 -5 -29 -18z"/>
<path d="M978 1213 c7 -3 16 -2 19 1 4 3 -2 6 -13 5 -11 0 -14 -3 -6 -6z"/>
<path d="M1152 1131 c3 -72 4 -76 27 -79 24 -4 24 -3 8 22 -21 31 -22 75 -2
103 14 19 13 21 -11 26 l-25 4 3 -76z"/>
<path d="M1222 1168 c-17 -17 -15 -64 4 -82 18 -19 28 -20 55 -6 21 12 27 74
9 85 -21 13 -57 14 -68 3z"/>
<path d="M1339 1173 c-1 -5 0 -23 1 -41 1 -18 -5 -44 -14 -56 -14 -23 -14 -24
9 -29 25 -4 25 -3 25 64 0 39 -4 69 -10 69 -5 0 -10 -3 -11 -7z"/>
<path d="M1400 1113 c-3 -23 -2 -39 3 -34 5 5 7 24 5 42 -3 33 -4 33 -8 -8z"/>
<path d="M1025 1050 c-3 -5 -1 -10 4 -10 6 0 11 5 11 10 0 6 -2 10 -4 10 -3 0
-8 -4 -11 -10z"/>
<path d="M1248 1033 c6 -2 18 -2 25 0 6 3 1 5 -13 5 -14 0 -19 -2 -12 -5z"/>
</g>
</svg>
