<?xml version="1.0" standalone="no"?>
<!DOCTYPE svg PUBLIC "-//W3C//DTD SVG 20010904//EN"
 "http://www.w3.org/TR/2001/REC-SVG-20010904/DTD/svg10.dtd">
<svg version="1.0" xmlns="http://www.w3.org/2000/svg"
 width="464.000000pt" height="108.000000pt" viewBox="0 0 464.000000 108.000000"
 preserveAspectRatio="xMidYMid meet">

<g transform="translate(0.000000,108.000000) scale(0.100000,-0.100000)"
fill="#000000" stroke="none">
<path d="M1760 836 c-200 -42 -310 -135 -350 -293 -6 -23 -16 -46 -23 -50 -6
-4 -124 -10 -262 -13 l-250 -5 0 -35 0 -35 110 -5 110 -5 0 -104 c0 -102 0
-104 -28 -125 -23 -17 -46 -22 -125 -24 -220 -8 -404 73 -463 202 -12 27 -19
64 -19 107 0 161 125 266 355 299 39 5 154 10 258 10 l187 0 0 41 0 41 -312
-5 c-225 -4 -336 -10 -395 -21 -156 -30 -258 -75 -337 -147 -68 -62 -99 -129
-99 -219 -2 -170 128 -293 374 -356 100 -26 118 -27 423 -31 281 -4 328 -3
384 12 83 23 132 67 132 119 0 54 21 55 69 3 51 -55 136 -101 238 -129 66 -18
106 -21 258 -21 154 0 191 3 258 21 221 61 327 183 327 377 0 116 -26 182 -99
256 -60 60 -128 96 -231 124 -87 24 -396 30 -490 11z m318 -85 c107 -56 168
-183 160 -335 -7 -131 -67 -232 -163 -277 -107 -50 -238 14 -296 145 -77 175
-11 408 135 472 45 19 121 17 164 -5z"/>
<path d="M2658 829 c-17 -9 -18 -36 -18 -333 0 -319 0 -324 23 -356 34 -51 67
-70 138 -80 103 -15 1272 -13 1291 3 14 11 403 514 422 545 5 9 -7 12 -53 12
l-60 0 -183 -237 c-101 -130 -188 -238 -195 -240 -6 -2 -89 104 -183 236
l-172 241 -323 0 c-178 0 -330 3 -339 6 -13 5 -16 23 -16 94 0 122 3 120 -173
120 -78 0 -150 -5 -159 -11z m698 -287 c18 -11 314 -396 314 -407 0 -3 -147
-4 -326 -3 -309 3 -326 4 -340 22 -11 15 -14 60 -14 201 0 100 3 185 7 188 9
9 345 9 359 -1z"/>
</g>
</svg>
