<svg width="16" height="16" viewBox="0 0 16 16" fill="none" xmlns="http://www.w3.org/2000/svg">
<path d="M14.9909 6.31132C15.0618 6.14003 15.0804 5.95155 15.0442 5.76971C15.008 5.58788 14.9186 5.42087 14.7875 5.28981L10.1017 0.604004L8.77654 1.92915L11.8626 5.01522H0.0674914V6.88955H14.1249C14.3103 6.8896 14.4914 6.83469 14.6456 6.73176C14.7997 6.62884 14.9199 6.48253 14.9909 6.31132ZM0.138716 9.3421C0.0677682 9.51339 0.0492207 9.70188 0.0854204 9.88371C0.12162 10.0655 0.21094 10.2326 0.34208 10.3636L5.02789 15.0494L6.35304 13.7243L3.26696 10.6382H15.0621V8.76387H1.00465C0.819287 8.7637 0.638041 8.81856 0.483884 8.9215C0.329727 9.02444 0.209597 9.17082 0.138716 9.3421Z" fill="#030A78"/>
</svg>
