<svg width="176" height="36" viewBox="0 0 176 36" fill="none" xmlns="http://www.w3.org/2000/svg">
<path d="M54.1978 30.4294L48.9676 7.44037C48.6533 6.05133 47.6057 4.94941 46.236 4.56141L33.4902 0.960771C31.9033 0.510691 30.2504 1.08493 29.2804 2.42353C28.3143 3.76213 28.2872 5.51201 29.2106 6.87777L34.9103 15.3051L29.7732 26.8326C29.7422 26.9025 29.7189 26.9723 29.6956 27.0421C29.2378 28.6058 27.938 29.1451 26.8671 29.1218C25.8001 29.1024 24.5158 28.5204 24.1162 26.9413C24.0968 26.8675 24.0735 26.7977 24.0463 26.7278L19.4097 15.2974L25.1017 6.87777C26.0251 5.50813 25.998 3.76213 25.0318 2.42353C24.0657 1.08493 22.4128 0.510691 20.822 0.960771L8.07624 4.56141C6.7066 4.94941 5.659 6.05133 5.34472 7.44037L0.114476 30.4294C-0.308444 32.2801 0.614997 34.1037 2.35712 34.8603C2.87316 35.0854 3.40472 35.1901 3.92852 35.1901C5.17788 35.1901 6.37292 34.5771 7.12176 33.4713L17.171 18.6031L20.9346 27.8802C21.6679 30.5613 24.0153 32.3888 26.805 32.4353C26.8438 32.4353 26.8826 32.4353 26.9214 32.4353C29.6646 32.4353 32.0158 30.7048 32.8345 28.0858L37.0909 18.5372L47.1866 33.4674C47.9355 34.5771 49.1305 35.1863 50.3799 35.1863C50.9037 35.1863 51.4391 35.0776 51.9513 34.8564C53.6934 34.1037 54.6168 32.284 54.1978 30.4294ZM4.38248 31.6166C4.204 31.8805 3.96732 31.9503 3.67244 31.8223C3.38144 31.6942 3.26892 31.4731 3.33876 31.1627L8.569 8.17369C8.61556 7.96805 8.77076 7.80509 8.9764 7.74689L21.7222 4.14625C22.0598 4.04925 22.2615 4.24325 22.3469 4.36353C22.4361 4.48769 22.5525 4.73601 22.3585 5.02701L16.298 13.9898C16.201 14.0985 16.1195 14.2187 16.0535 14.3506L4.38248 31.6166ZM50.636 31.8223C50.345 31.9503 50.1044 31.8805 49.9259 31.6166L38.2898 14.4089C38.22 14.2614 38.1268 14.1256 38.0182 14.0053L31.9499 5.02701C31.752 4.73601 31.8723 4.48769 31.9615 4.36353C32.0314 4.26265 32.1788 4.11909 32.4116 4.11909C32.4659 4.11909 32.5241 4.12685 32.5901 4.14625L45.3359 7.74689C45.5415 7.80509 45.6967 7.96805 45.7433 8.17369L50.9735 31.1627C51.0395 31.477 50.927 31.6981 50.636 31.8223Z" fill="url(#paint0_linear_788_2347)"/>
<path d="M75.9838 27.4731L70.2414 11.7397L69.0425 27.3373H67.5991L69.1511 8.99268H70.676L76.6628 25.6767L82.6768 8.99268H84.1745L85.7265 27.3373H84.2831L83.0842 11.7397L77.369 27.4731H75.9838Z" fill="#030A78"/>
<path d="M88.2329 21.7037C88.2329 19.8801 88.6675 18.4639 89.5405 17.4047C90.4096 16.3415 91.6628 15.7983 93.2691 15.7983C94.8755 15.7983 96.1287 16.3415 96.9978 17.4047C97.8669 18.4678 98.3054 19.8801 98.3054 21.7037C98.3054 23.5273 97.8708 24.9707 96.9978 26.0299C96.1287 27.093 94.8755 27.6091 93.2691 27.6091C91.6628 27.6091 90.4096 27.093 89.5405 26.0299C88.6675 24.9707 88.2329 23.5273 88.2329 21.7037ZM93.2691 26.3597C95.5816 26.3597 96.8077 24.6447 96.8077 21.7309C96.8077 18.8985 95.6631 17.0477 93.2691 17.0477C90.9838 17.0477 89.7577 18.7627 89.7577 21.7037C89.7577 24.5361 90.8713 26.3597 93.2691 26.3597Z" fill="#030A78"/>
<path d="M101.126 27.3374V16.7761C102.516 16.1242 103.986 15.7944 105.534 15.7944C108.145 15.7944 109.806 17.0748 109.806 19.9305V27.3336H108.363V20.1478C108.363 18.0798 107.408 17.0438 105.476 17.0438C104.494 17.0438 103.517 17.2068 102.562 17.5598V27.3297H101.126V27.3374Z" fill="#030A78"/>
<path d="M113.814 11.0337C114.493 11.0337 114.823 11.3596 114.823 11.9882C114.823 12.5857 114.524 12.8845 113.923 12.8845C113.244 12.8845 112.887 12.5585 112.887 11.93C112.891 11.3325 113.189 11.0337 113.814 11.0337ZM114.551 16.0428V27.3375H113.108V16.0428H114.551Z" fill="#030A78"/>
<path d="M118.959 26.0842C117.841 25.0754 117.271 23.5816 117.271 21.5951C117.271 18.0293 119.285 15.7983 122.334 15.7983C124.946 15.7983 126.606 17.4318 126.606 20.563V21.7891H118.769C118.85 24.9202 120.81 26.3636 123.452 26.3636C124.294 26.3636 125.384 26.2006 126.692 25.9019L126.61 27.1279C125.384 27.4539 124.298 27.6168 123.343 27.6168C121.57 27.6091 120.103 27.093 118.959 26.0842ZM125.109 20.6677V20.369C125.109 18.2195 124.045 16.9934 122.303 16.9934C120.453 16.9934 119.091 18.3553 118.792 20.6677H125.109Z" fill="#030A78"/>
<path d="M135.503 27.3372H131.666L127.991 16.0425H131.258L133.625 24.8074L136.046 16.0425H139.15L135.503 27.3372Z" fill="#030A78"/>
<path d="M141.626 26.0571C140.4 25.0211 139.775 23.5545 139.775 21.6765C139.775 19.9073 140.291 18.4911 141.354 17.4318C142.417 16.3415 143.802 15.7983 145.544 15.7983C148.676 15.7983 150.526 17.6763 150.526 21.3506V22.5767H142.933C143.313 24.2373 144.675 25.0793 147.015 25.0793C148.024 25.0793 149.137 24.9707 150.391 24.7262L150.282 27.2017C149.056 27.4733 147.779 27.6091 146.472 27.6091C144.485 27.6091 142.852 27.093 141.626 26.0571ZM147.45 20.5048V20.3418C147.45 19.0614 146.689 18.1923 145.463 18.1923C144.183 18.1923 143.286 19.1157 142.96 20.5048H147.45Z" fill="#030A78"/>
<path d="M152.858 27.3374V17.102C154.601 16.2329 156.424 15.7944 158.302 15.7944C161.243 15.7944 163.094 17.1292 163.094 20.0935V27.3336H160.071V20.7453C160.071 19.0847 159.365 18.2699 157.976 18.2699C157.324 18.2699 156.614 18.4328 155.881 18.7316V27.3336H152.858V27.3374Z" fill="#030A78"/>
<path d="M175.987 8.39502V26.8755C174.326 27.3643 172.774 27.6088 171.331 27.6088C167.494 27.6088 165.208 25.5136 165.208 21.5676C165.208 17.7846 167.249 15.7981 170.598 15.7981C171.498 15.7981 172.286 15.9339 172.965 16.2055V8.99254L175.987 8.39502ZM172.968 18.5994C172.452 18.3821 171.878 18.2735 171.254 18.2735C169.321 18.2735 168.34 19.3909 168.34 21.6491C168.34 24.0159 169.484 25.1333 171.335 25.1333C171.96 25.1333 172.507 25.0519 172.968 24.8889V18.5994Z" fill="#030A78"/>
<defs>
<linearGradient id="paint0_linear_788_2347" x1="27.1547" y1="-2.6103" x2="27.1547" y2="41.5721" gradientUnits="userSpaceOnUse">
<stop stop-color="#27DFD2"/>
<stop offset="1" stop-color="#3083D2"/>
</linearGradient>
</defs>
</svg>
