<svg width="162" height="81" viewBox="0 0 162 81" fill="none" xmlns="http://www.w3.org/2000/svg">
<path d="M81.3238 0.5C36.8658 0.5 0.825195 18.4101 0.825195 40.5C0.825195 62.5899 36.8658 80.5 81.3238 80.5C125.782 80.5 161.825 62.5899 161.825 40.5C161.825 18.4101 125.779 0.5 81.3238 0.5ZM81.3238 74.1866C40.3759 74.1866 7.18079 59.1044 7.18079 40.5C7.18079 21.8956 40.3759 6.81624 81.3238 6.81624C122.272 6.81624 155.47 21.8956 155.47 40.5C155.47 59.1044 122.275 74.1866 81.3238 74.1866ZM71.1741 33.4838V27.1676H93.893V33.4838H85.7142V53.8409H79.3501V33.4838H71.1741ZM121.298 27.1676V53.8409H114.942L103.415 37.9656V53.8409H97.0623V27.1676H103.415L114.942 43.0429V27.1676H121.298ZM41.1654 53.8409V27.1676H47.521L54.5808 37.96L61.6407 27.1676H67.9963V53.8409H61.6407V38.7502L56.813 46.1135H52.3402L47.5124 38.7502V53.8409H41.1654Z" fill="#1D1D1B"/>
</svg>
