<svg width="205" height="173" viewBox="0 0 205 173" fill="none" xmlns="http://www.w3.org/2000/svg">
<g clip-path="url(#clip0_765_5686)">
<path d="M132.166 103.773H77.1813C75.7077 103.771 74.295 103.185 73.253 102.143C72.211 101.101 71.6249 99.6883 71.6232 98.2147V25.4085C71.6249 23.9349 72.211 22.5221 73.253 21.4801C74.295 20.4381 75.7077 19.852 77.1813 19.8503H132.166C133.64 19.852 135.053 20.4381 136.095 21.4801C137.137 22.5221 137.723 23.9349 137.724 25.4085V98.2147C137.723 99.6883 137.137 101.101 136.095 102.143C135.053 103.185 133.64 103.771 132.166 103.773Z" fill="#F0F0F7"/>
<path d="M128.301 99.1406H81.0465C79.7381 99.1391 78.4837 98.6187 77.5585 97.6935C76.6333 96.7684 76.1129 95.514 76.1115 94.2056V29.4179C76.1129 28.1095 76.6333 26.8552 77.5585 25.93C78.4837 25.0048 79.7381 24.4844 81.0465 24.4829H128.301C129.61 24.4844 130.864 25.0048 131.789 25.93C132.714 26.8551 133.235 28.1095 133.236 29.4179V94.2056C133.235 95.514 132.714 96.7684 131.789 97.6935C130.864 98.6187 129.61 99.1391 128.301 99.1406Z" fill="white"/>
<path d="M123.587 36.795H85.7601C85.598 36.7952 85.4374 36.7634 85.2875 36.7016C85.1376 36.6397 85.0014 36.5488 84.8867 36.4342C84.7719 36.3197 84.6809 36.1836 84.6188 36.0338C84.5567 35.884 84.5247 35.7235 84.5247 35.5613C84.5247 35.3991 84.5567 35.2386 84.6188 35.0888C84.6809 34.939 84.7719 34.8029 84.8867 34.6883C85.0014 34.5738 85.1376 34.4829 85.2875 34.421C85.4374 34.3591 85.598 34.3274 85.7601 34.3276H123.587C123.749 34.3274 123.91 34.3591 124.06 34.421C124.21 34.4829 124.346 34.5738 124.46 34.6883C124.575 34.8029 124.666 34.939 124.728 35.0888C124.79 35.2386 124.822 35.3991 124.822 35.5613C124.822 35.7235 124.79 35.884 124.728 36.0338C124.666 36.1836 124.575 36.3197 124.46 36.4342C124.346 36.5488 124.21 36.6397 124.06 36.7016C123.91 36.7634 123.749 36.7952 123.587 36.795Z" fill="#F0F0F7"/>
<path d="M123.587 41.6698H85.7603C85.4331 41.6698 85.1193 41.5399 84.8879 41.3085C84.6565 41.0771 84.5266 40.7633 84.5266 40.4361C84.5266 40.1089 84.6565 39.7951 84.8879 39.5637C85.1193 39.3324 85.4331 39.2024 85.7603 39.2024H123.587C123.914 39.2024 124.228 39.3324 124.46 39.5637C124.691 39.7951 124.821 40.1089 124.821 40.4361C124.821 40.7633 124.691 41.0771 124.46 41.3085C124.228 41.5399 123.914 41.6698 123.587 41.6698Z" fill="#F0F0F7"/>
<path d="M102.157 46.5446H85.7603C85.4331 46.5446 85.1193 46.4146 84.8879 46.1832C84.6565 45.9519 84.5266 45.6381 84.5266 45.3109C84.5266 44.9837 84.6565 44.6699 84.8879 44.4385C85.1193 44.2071 85.4331 44.0771 85.7603 44.0771H102.157C102.485 44.0771 102.798 44.2071 103.03 44.4385C103.261 44.6699 103.391 44.9837 103.391 45.3109C103.391 45.6381 103.261 45.9519 103.03 46.1832C102.798 46.4146 102.485 46.5446 102.157 46.5446Z" fill="#F0F0F7"/>
<path d="M123.587 56.7544H85.7601C85.598 56.7547 85.4374 56.7229 85.2875 56.661C85.1376 56.5991 85.0014 56.5083 84.8867 56.3937C84.7719 56.2791 84.6809 56.1431 84.6188 55.9933C84.5567 55.8435 84.5247 55.6829 84.5247 55.5208C84.5247 55.3586 84.5567 55.1981 84.6188 55.0483C84.6809 54.8985 84.7719 54.7624 84.8867 54.6478C85.0014 54.5332 85.1376 54.4424 85.2875 54.3805C85.4374 54.3186 85.598 54.2869 85.7601 54.2871H123.587C123.749 54.2869 123.91 54.3186 124.06 54.3805C124.21 54.4424 124.346 54.5332 124.46 54.6478C124.575 54.7624 124.666 54.8985 124.728 55.0483C124.79 55.1981 124.822 55.3586 124.822 55.5208C124.822 55.6829 124.79 55.8435 124.728 55.9933C124.666 56.1431 124.575 56.2791 124.46 56.3937C124.346 56.5083 124.21 56.5991 124.06 56.661C123.91 56.7229 123.749 56.7547 123.587 56.7544Z" fill="#F0F0F7"/>
<path d="M123.587 61.6291H85.7603C85.4331 61.6291 85.1193 61.4991 84.8879 61.2677C84.6565 61.0363 84.5266 60.7225 84.5266 60.3953C84.5266 60.0681 84.6565 59.7543 84.8879 59.523C85.1193 59.2916 85.4331 59.1616 85.7603 59.1616H123.587C123.914 59.1616 124.228 59.2916 124.46 59.523C124.691 59.7543 124.821 60.0681 124.821 60.3953C124.821 60.7225 124.691 61.0363 124.46 61.2677C124.228 61.4991 123.914 61.6291 123.587 61.6291Z" fill="#F0F0F7"/>
<path d="M102.157 66.5038H85.7603C85.4334 66.5034 85.1201 66.3732 84.8891 66.1419C84.6581 65.9105 84.5284 65.597 84.5284 65.2701C84.5284 64.9432 84.6581 64.6297 84.8891 64.3983C85.1201 64.167 85.4334 64.0368 85.7603 64.0364H102.157C102.485 64.0364 102.798 64.1664 103.03 64.3977C103.261 64.6291 103.391 64.9429 103.391 65.2701C103.391 65.5973 103.261 65.9111 103.03 66.1425C102.798 66.3738 102.485 66.5038 102.157 66.5038Z" fill="#F0F0F7"/>
<path d="M123.587 76.7137H85.7601C85.598 76.7139 85.4374 76.6821 85.2875 76.6203C85.1376 76.5584 85.0014 76.4675 84.8867 76.3529C84.7719 76.2384 84.6809 76.1023 84.6188 75.9525C84.5567 75.8027 84.5247 75.6422 84.5247 75.48C84.5247 75.3178 84.5567 75.1573 84.6188 75.0075C84.6809 74.8577 84.7719 74.7216 84.8867 74.607C85.0014 74.4925 85.1376 74.4016 85.2875 74.3397C85.4374 74.2778 85.598 74.2461 85.7601 74.2463H123.587C123.749 74.2461 123.91 74.2778 124.06 74.3397C124.21 74.4016 124.346 74.4925 124.46 74.607C124.575 74.7216 124.666 74.8577 124.728 75.0075C124.79 75.1573 124.822 75.3178 124.822 75.48C124.822 75.6422 124.79 75.8027 124.728 75.9525C124.666 76.1023 124.575 76.2384 124.46 76.3529C124.346 76.4675 124.21 76.5584 124.06 76.6203C123.91 76.6821 123.749 76.7139 123.587 76.7137Z" fill="#F0F0F7"/>
<path d="M123.587 81.5883H85.7603C85.4331 81.5883 85.1193 81.4583 84.8879 81.2269C84.6565 80.9956 84.5266 80.6818 84.5266 80.3546C84.5266 80.0274 84.6565 79.7136 84.8879 79.4822C85.1193 79.2508 85.4331 79.1208 85.7603 79.1208H123.587C123.914 79.1208 124.228 79.2508 124.46 79.4822C124.691 79.7136 124.821 80.0274 124.821 80.3546C124.821 80.6818 124.691 80.9956 124.46 81.2269C124.228 81.4583 123.914 81.5883 123.587 81.5883Z" fill="#F0F0F7"/>
<path d="M102.157 86.4633H85.7603C85.4331 86.4633 85.1193 86.3333 84.8879 86.1019C84.6565 85.8706 84.5266 85.5568 84.5266 85.2296C84.5266 84.9024 84.6565 84.5886 84.8879 84.3572C85.1193 84.1258 85.4331 83.9958 85.7603 83.9958H102.157C102.485 83.9958 102.798 84.1258 103.03 84.3572C103.261 84.5886 103.391 84.9024 103.391 85.2296C103.391 85.5568 103.261 85.8706 103.03 86.1019C102.798 86.3333 102.485 86.4633 102.157 86.4633Z" fill="#F0F0F7"/>
<path d="M93.778 61.4467L52.6812 26.2947H25.0714V25.7769H52.8724L94.1147 61.0532L93.778 61.4467Z" fill="#030A78"/>
<path d="M25.0712 30.1788C27.3592 30.1788 29.2141 28.324 29.2141 26.0359C29.2141 23.7479 27.3592 21.8931 25.0712 21.8931C22.7832 21.8931 20.9283 23.7479 20.9283 26.0359C20.9283 28.324 22.7832 30.1788 25.0712 30.1788Z" fill="#4F54A1"/>
<path d="M39.8418 39.9707H2.01491C1.85291 39.9707 1.69249 39.9388 1.54281 39.8768C1.39314 39.8148 1.25714 39.724 1.14258 39.6094C1.02803 39.4949 0.937155 39.3589 0.875158 39.2092C0.813161 39.0595 0.78125 38.8991 0.78125 38.7371C0.78125 38.5751 0.813161 38.4147 0.875158 38.265C0.937155 38.1153 1.02803 37.9793 1.14258 37.8648C1.25714 37.7502 1.39314 37.6593 1.54281 37.5973C1.69249 37.5353 1.85291 37.5034 2.01491 37.5034H39.8418C40.0038 37.5034 40.1642 37.5353 40.3139 37.5973C40.4636 37.6593 40.5996 37.7502 40.7141 37.8648C40.8287 37.9793 40.9195 38.1153 40.9815 38.265C41.0435 38.4147 41.0754 38.5751 41.0754 38.7371C41.0754 38.8991 41.0435 39.0595 40.9815 39.2092C40.9195 39.3589 40.8287 39.4949 40.7141 39.6094C40.5996 39.724 40.4636 39.8148 40.3139 39.8768C40.1642 39.9388 40.0038 39.9707 39.8418 39.9707Z" fill="#4F54A1"/>
<path d="M39.8418 44.8456H2.01497C1.68777 44.8456 1.37396 44.7156 1.1426 44.4843C0.911229 44.2529 0.78125 43.9391 0.78125 43.6119C0.78125 43.2847 0.911229 42.9709 1.1426 42.7395C1.37396 42.5082 1.68777 42.3782 2.01497 42.3782H39.8418C40.169 42.3782 40.4828 42.5082 40.7142 42.7395C40.9456 42.9709 41.0756 43.2847 41.0756 43.6119C41.0756 43.9391 40.9456 44.2529 40.7142 44.4843C40.4828 44.7156 40.169 44.8456 39.8418 44.8456Z" fill="#4F54A1"/>
<path d="M18.412 49.7204H2.01497C1.68777 49.7204 1.37396 49.5904 1.1426 49.359C0.911229 49.1277 0.78125 48.8139 0.78125 48.4866C0.78125 48.1594 0.911229 47.8456 1.1426 47.6143C1.37396 47.3829 1.68777 47.2529 2.01497 47.2529H18.412C18.7392 47.2529 19.053 47.3829 19.2844 47.6143C19.5157 47.8456 19.6457 48.1594 19.6457 48.4866C19.6457 48.8139 19.5157 49.1277 19.2844 49.359C19.053 49.5904 18.7392 49.7204 18.412 49.7204Z" fill="#4F54A1"/>
<path d="M104.674 39.1601L145.916 3.88379H173.717V4.4016H146.107L105.01 39.5537L104.674 39.1601Z" fill="#030A78"/>
<path d="M173.717 8.28572C176.005 8.28572 177.86 6.43089 177.86 4.14286C177.86 1.85482 176.005 0 173.717 0C171.429 0 169.574 1.85482 169.574 4.14286C169.574 6.43089 171.429 8.28572 173.717 8.28572Z" fill="#4F54A1"/>
<path d="M201.886 17.9324H164.059C163.897 17.9326 163.736 17.9009 163.586 17.839C163.437 17.7771 163.3 17.6863 163.186 17.5717C163.071 17.4571 162.98 17.321 162.918 17.1713C162.856 17.0215 162.824 16.8609 162.824 16.6987C162.824 16.5366 162.856 16.376 162.918 16.2262C162.98 16.0765 163.071 15.9404 163.186 15.8258C163.3 15.7112 163.437 15.6204 163.586 15.5585C163.736 15.4966 163.897 15.4649 164.059 15.4651H201.886C202.048 15.4649 202.209 15.4966 202.359 15.5585C202.508 15.6204 202.645 15.7112 202.759 15.8258C202.874 15.9404 202.965 16.0765 203.027 16.2262C203.089 16.376 203.121 16.5366 203.121 16.6987C203.121 16.8609 203.089 17.0215 203.027 17.1713C202.965 17.321 202.874 17.4571 202.759 17.5717C202.645 17.6863 202.508 17.7771 202.359 17.839C202.209 17.9009 202.048 17.9326 201.886 17.9324Z" fill="#4F54A1"/>
<path d="M201.886 22.8073H164.059C163.732 22.8073 163.418 22.6773 163.187 22.4459C162.955 22.2146 162.826 21.9008 162.826 21.5736C162.826 21.2464 162.955 20.9326 163.187 20.7012C163.418 20.4698 163.732 20.3398 164.059 20.3398H201.886C202.048 20.3398 202.209 20.3718 202.358 20.4338C202.508 20.4958 202.644 20.5866 202.758 20.7012C202.873 20.8158 202.964 20.9518 203.026 21.1014C203.088 21.2511 203.12 21.4115 203.12 21.5736C203.12 21.7356 203.088 21.896 203.026 22.0457C202.964 22.1954 202.873 22.3314 202.758 22.4459C202.644 22.5605 202.508 22.6514 202.358 22.7134C202.209 22.7754 202.048 22.8073 201.886 22.8073Z" fill="#4F54A1"/>
<path d="M180.456 27.682H164.059C163.732 27.682 163.418 27.5521 163.187 27.3207C162.955 27.0893 162.826 26.7755 162.826 26.4483C162.826 26.1211 162.955 25.8073 163.187 25.5759C163.418 25.3446 163.732 25.2146 164.059 25.2146H180.456C180.783 25.2146 181.097 25.3446 181.329 25.5759C181.56 25.8073 181.69 26.1211 181.69 26.4483C181.69 26.7755 181.56 27.0893 181.329 27.3207C181.097 27.5521 180.783 27.682 180.456 27.682Z" fill="#4F54A1"/>
<path d="M172.23 116.993C172.017 116.761 171.857 116.485 171.762 116.184C171.667 115.884 171.639 115.566 171.68 115.254C171.721 114.942 171.83 114.642 171.999 114.376C172.168 114.11 172.394 113.885 172.66 113.716L170.893 106.263L174.632 107.629L175.736 114.497C175.991 114.962 176.066 115.505 175.947 116.022C175.828 116.539 175.524 116.994 175.092 117.302C174.659 117.61 174.129 117.748 173.602 117.691C173.075 117.634 172.586 117.386 172.23 116.993Z" fill="#3083D2"/>
<path d="M163.24 85.7611L164.74 89.6192C164.74 89.6192 164.097 93.4773 165.169 94.3347C166.24 95.1921 165.812 95.192 165.812 95.8351C165.849 96.2963 165.982 96.7446 166.204 97.1508C166.425 97.557 166.73 97.912 167.098 98.1928C167.955 98.8358 171.813 111.911 171.813 111.911H175.671C175.547 110.914 175.547 109.906 175.671 108.91C175.886 107.409 175.028 103.551 174.6 102.908C174.171 102.265 174.6 101.408 174.6 100.122C174.6 98.8358 173.742 98.1928 173.742 96.0494C173.742 93.906 171.17 77.1876 171.385 75.2585C171.599 73.3295 169.241 71.6147 169.241 71.6147H167.098L163.24 85.7611Z" fill="#F0F0F7"/>
<path d="M154.162 93.9444L150.596 109.859L173.447 108.437L167.233 92.8076L154.162 93.9444Z" fill="#3083D2"/>
<path d="M203.973 153.758C203.293 156.217 202.231 158.554 200.825 160.684C197.685 165.432 193.191 169.063 188.252 171.969C187.91 172.173 187.563 172.372 187.216 172.568H183.751L183.63 172.291V172.289L183.489 171.969L183.472 171.931L183.464 171.969L183.326 172.568H181.625C181.484 172.369 181.346 172.17 181.21 171.969C181.011 171.675 180.82 171.378 180.639 171.076C180.319 170.548 180.033 170 179.783 169.435C179.753 169.372 179.728 169.309 179.703 169.247L179.816 169.123L179.345 167.065L180.292 166.909L179.255 163.711C179.293 163.593 179.335 163.475 179.381 163.356C179.962 161.885 181.054 160.785 182.35 159.862C183.683 158.908 185.236 158.143 186.662 157.348C187.332 156.973 187.991 156.578 188.632 156.16V156.158C189.453 155.627 190.249 155.059 191.02 154.454C191.033 154.446 191.046 154.437 191.058 154.427C191.069 154.419 191.079 154.411 191.088 154.402C194.547 151.699 197.474 148.378 199.721 144.607C199.721 144.607 199.721 144.606 199.722 144.606C199.722 144.606 199.722 144.606 199.723 144.606C199.723 144.606 199.723 144.605 199.723 144.605C199.723 144.605 199.723 144.604 199.723 144.604C199.799 144.483 199.869 144.362 199.94 144.239V144.237C200.86 142.654 201.651 141.001 202.307 139.293V139.29C202.358 139.164 202.403 139.038 202.451 138.913C202.516 139.023 202.579 139.134 202.639 139.245C202.64 139.245 202.64 139.245 202.64 139.245C202.641 139.245 202.641 139.245 202.641 139.245C202.641 139.246 202.642 139.246 202.642 139.246C202.642 139.247 202.642 139.247 202.642 139.247C205.083 143.613 205.314 148.871 203.973 153.758Z" fill="#F0F0F7"/>
<path d="M202.642 139.247C202.666 141.577 202.424 143.902 201.92 146.177C201.693 147.217 201.411 148.246 201.074 149.256C200.421 151.234 199.567 153.139 198.526 154.943C198.468 155.041 198.412 155.136 198.352 155.232V155.234C197.907 155.985 197.424 156.712 196.905 157.413C196.12 158.531 195.15 159.506 194.037 160.297C193.128 160.898 192.1 161.295 191.023 161.462C190.821 161.5 190.615 161.527 190.406 161.552C189.573 161.651 188.713 161.688 187.888 161.864C187.47 161.947 187.063 162.078 186.675 162.254C185.346 162.871 184.599 164.162 184.272 165.54C184.214 165.782 184.169 166.026 184.134 166.27C183.859 168.145 184.161 170.092 184.005 171.969C183.988 172.168 183.965 172.369 183.937 172.568H183.751L183.63 172.291V172.289C183.643 172.183 183.653 172.077 183.663 171.969C183.723 171.047 183.731 170.122 183.686 169.199C183.676 168.784 183.668 168.366 183.673 167.948C183.678 167.614 183.691 167.279 183.716 166.947V166.944C183.734 166.738 183.754 166.534 183.781 166.33C183.861 165.706 184.015 165.094 184.239 164.506C184.458 163.901 184.803 163.348 185.25 162.885C185.698 162.422 186.238 162.059 186.836 161.819C187.201 161.682 187.577 161.577 187.961 161.505C188.803 161.344 189.674 161.303 190.522 161.198C190.613 161.188 190.703 161.175 190.791 161.16C190.904 161.142 191.015 161.122 191.126 161.102C192.235 160.905 193.283 160.451 194.185 159.776C195.258 158.927 196.19 157.915 196.948 156.777C197.361 156.186 197.753 155.582 198.118 154.96C198.118 154.96 198.118 154.96 198.118 154.959C198.118 154.959 198.119 154.959 198.119 154.958C198.119 154.958 198.119 154.958 198.12 154.958C198.12 154.958 198.12 154.958 198.121 154.958C198.138 154.928 198.156 154.9 198.173 154.87L198.176 154.865C199.741 152.19 200.883 149.29 201.563 146.267C201.585 146.156 201.61 146.046 201.636 145.935C202.103 143.752 202.328 141.525 202.307 139.293V139.29C202.307 139.184 202.305 139.081 202.302 138.976C202.297 138.759 202.632 138.711 202.637 138.928C202.639 139.033 202.642 139.139 202.639 139.245C202.64 139.245 202.64 139.245 202.64 139.245C202.641 139.245 202.641 139.245 202.641 139.245C202.641 139.246 202.642 139.246 202.642 139.246C202.642 139.247 202.642 139.247 202.642 139.247Z" fill="white"/>
<path d="M198.209 155.164C199.167 155.651 200.268 155.781 201.314 155.531C202.36 155.282 203.283 154.669 203.919 153.801C204.047 153.625 203.779 153.418 203.651 153.594C203.061 154.403 202.201 154.974 201.226 155.205C200.252 155.435 199.227 155.31 198.337 154.851C198.143 154.751 198.016 155.065 198.209 155.164Z" fill="white"/>
<path d="M191.158 161.202C190.458 159.119 190.568 156.847 191.468 154.842C191.557 154.643 191.244 154.515 191.155 154.713C190.223 156.802 190.112 159.166 190.846 161.333C190.916 161.539 191.228 161.407 191.158 161.202V161.202Z" fill="white"/>
<path d="M201.733 145.966C201.323 145.855 200.946 145.644 200.638 145.351C200.329 145.059 200.099 144.694 199.966 144.29C199.898 144.083 199.587 144.215 199.654 144.421C199.803 144.866 200.058 145.269 200.398 145.592C200.738 145.916 201.152 146.152 201.604 146.279C201.646 146.294 201.692 146.293 201.733 146.276C201.774 146.259 201.807 146.227 201.825 146.187C201.842 146.145 201.842 146.099 201.824 146.057C201.807 146.016 201.774 145.983 201.733 145.966H201.733Z" fill="white"/>
<path d="M188.632 156.158V156.161C188.554 157.957 188.33 159.745 187.961 161.505V161.507C187.941 161.628 187.913 161.746 187.888 161.865C187.28 164.587 186.429 167.249 185.344 169.818C185.044 170.543 184.731 171.26 184.403 171.969C184.312 172.17 184.219 172.369 184.124 172.568H183.751L183.63 172.291V172.289L183.49 171.969L183.472 171.931L183.464 171.969L183.326 172.568H179.728L179.029 171.969L178.01 171.096L179.434 169.541L179.668 169.284L179.703 169.247L179.816 169.123L179.346 167.065L180.292 166.909L179.255 163.711L178.764 162.199L178.641 161.819L177.924 159.608L175.76 160.013L175.408 158.78C176.056 157.276 176.596 155.728 177.023 154.148C177.026 154.135 177.031 154.125 177.033 154.112C178.176 149.855 178.519 145.422 178.045 141.039V141.036C178.03 140.895 178.012 140.752 177.992 140.614V140.609C177.776 138.792 177.413 136.996 176.905 135.239C176.87 135.106 176.829 134.975 176.792 134.844C176.907 134.895 177.021 134.942 177.136 134.993L177.139 134.995H177.144C177.328 135.076 177.511 135.161 177.69 135.252C181.982 137.338 185.14 141.253 186.934 145.767C186.939 145.779 186.944 145.789 186.949 145.802C187.885 148.168 188.443 150.667 188.602 153.207C188.663 154.189 188.673 155.174 188.632 156.158Z" fill="#F0F0F7"/>
<path d="M182.103 172.568H181.706C181.58 172.364 181.444 172.165 181.308 171.969C181.092 171.665 180.868 171.367 180.639 171.076C180.44 170.824 180.241 170.575 180.042 170.326C179.836 170.067 179.632 169.808 179.433 169.541L179.667 169.284C179.705 169.335 179.743 169.385 179.783 169.435C180.427 170.283 181.124 171.099 181.721 171.969C181.854 172.165 181.982 172.364 182.103 172.568Z" fill="white"/>
<path d="M176.708 134.985C176.773 135.068 176.841 135.153 176.904 135.239C177.395 135.875 177.859 136.532 178.296 137.209C179.074 138.403 179.765 139.652 180.364 140.945C180.412 141.046 180.46 141.149 180.505 141.252C181.786 144.079 182.621 147.087 182.981 150.169C182.986 150.2 182.988 150.227 182.991 150.257C183.074 150.977 183.127 151.699 183.152 152.424C183.232 153.788 183.097 155.157 182.752 156.48C182.701 156.653 182.646 156.824 182.586 156.99C182.434 157.397 182.245 157.789 182.02 158.16C181.858 158.431 181.678 158.691 181.481 158.938C181.363 159.089 181.24 159.237 181.109 159.381C181.033 159.464 180.955 159.547 180.877 159.63C180.812 159.693 180.749 159.758 180.684 159.821C180.004 160.48 179.254 161.092 178.64 161.819L178.764 162.199C179.355 161.449 180.117 160.828 180.804 160.173C181.235 159.768 181.628 159.323 181.977 158.845C182.022 158.779 182.07 158.714 182.113 158.646C182.346 158.305 182.547 157.944 182.714 157.567C182.8 157.378 182.878 157.184 182.948 156.983C183.359 155.682 183.546 154.321 183.502 152.957C183.493 152.084 183.441 151.211 183.345 150.343C183.335 150.23 183.323 150.119 183.308 150.006C183.053 147.939 182.587 145.904 181.919 143.932C181.073 141.43 179.909 139.047 178.457 136.842C178.042 136.21 177.601 135.594 177.136 134.992C177.075 134.909 177.012 134.829 176.947 134.746C176.814 134.575 176.575 134.814 176.708 134.985Z" fill="white"/>
<path d="M183.188 150.375C184.247 150.186 185.204 149.628 185.889 148.799C186.574 147.969 186.942 146.924 186.927 145.849C186.926 145.805 186.908 145.763 186.877 145.732C186.845 145.701 186.804 145.684 186.76 145.683C186.716 145.683 186.673 145.699 186.642 145.729C186.61 145.759 186.591 145.801 186.589 145.845C186.604 146.846 186.261 147.82 185.622 148.59C184.983 149.361 184.089 149.878 183.102 150.047C182.888 150.085 182.975 150.411 183.188 150.375Z" fill="white"/>
<path d="M181.194 159.441C179.381 158.199 178.101 156.319 177.612 154.176C177.564 153.964 177.237 154.05 177.285 154.262C177.798 156.491 179.133 158.445 181.024 159.733C181.204 159.855 181.374 159.563 181.194 159.441Z" fill="white"/>
<path d="M180.464 140.909C180.07 141.067 179.642 141.125 179.22 141.077C178.798 141.029 178.394 140.877 178.045 140.635C177.866 140.51 177.697 140.803 177.874 140.927C178.261 141.193 178.707 141.36 179.174 141.414C179.64 141.468 180.113 141.407 180.55 141.236C180.593 141.223 180.629 141.195 180.651 141.157C180.674 141.118 180.681 141.073 180.671 141.029C180.659 140.986 180.631 140.949 180.592 140.927C180.554 140.904 180.508 140.898 180.464 140.909Z" fill="white"/>
<path d="M157.967 167.394H155.4L154.179 157.493L157.967 157.493L157.967 167.394Z" fill="#3083D2"/>
<path d="M159.348 172.268H157.527L157.201 170.549L156.369 172.268H151.538C151.306 172.268 151.081 172.194 150.894 172.057C150.708 171.92 150.57 171.727 150.501 171.506C150.432 171.284 150.436 171.047 150.511 170.828C150.587 170.609 150.73 170.42 150.921 170.289L154.779 167.624V165.886L158.836 166.128L159.348 172.268Z" fill="#030A78"/>
<path d="M182.228 166.117L179.72 166.661L176.427 157.244L180.13 156.441L182.228 166.117Z" fill="#3083D2"/>
<path d="M184.611 170.588L182.831 170.974L182.149 169.362L181.7 171.22L176.979 172.244C176.752 172.293 176.516 172.268 176.305 172.174C176.093 172.079 175.918 171.92 175.804 171.718C175.689 171.517 175.643 171.284 175.67 171.054C175.697 170.824 175.797 170.609 175.956 170.44L179.161 167.018L178.793 165.319L182.81 164.696L184.611 170.588Z" fill="#030A78"/>
<path d="M200.307 172.268C200.307 172.308 200.3 172.347 200.285 172.383C200.27 172.42 200.248 172.453 200.22 172.48C200.192 172.508 200.159 172.53 200.123 172.545C200.086 172.56 200.047 172.568 200.008 172.568H129.484C129.405 172.568 129.329 172.536 129.273 172.48C129.216 172.424 129.185 172.348 129.185 172.268C129.185 172.189 129.216 172.113 129.273 172.057C129.329 172.001 129.405 171.969 129.484 171.969H200.008C200.047 171.969 200.086 171.977 200.123 171.992C200.159 172.007 200.192 172.029 200.22 172.056C200.248 172.084 200.27 172.117 200.285 172.154C200.3 172.19 200.307 172.229 200.307 172.268Z" fill="#9A9DC9"/>
<path d="M150.012 123.166C151.814 133.067 152.264 137.342 152.264 137.342C152.264 137.342 150.913 138.917 151.814 139.818C152.714 140.718 151.814 142.517 151.814 142.517L153.839 164.344L155.469 164.08L159.397 163.449L160.814 163.22L159.913 142.744C159.913 142.744 160.814 140.942 160.363 140.492C159.913 140.042 160.814 137.342 160.814 137.342L161.938 115.965L168.915 139.367C168.915 139.367 168.239 140.268 168.915 140.942C169.59 141.617 170.938 144.993 170.938 144.993L175.087 159.511L175.44 160.744L177.603 160.339L179.959 159.896L180.391 159.816L181.161 159.67L181.657 159.576L181.825 159.546L182.641 159.393L182.394 158.298L182.266 157.722L178.756 142.132L178.675 141.773L178.59 141.393C178.59 141.393 179.04 140.268 178.366 139.591C178.169 139.385 178.024 139.134 177.946 138.859C177.868 138.585 177.857 138.295 177.915 138.016C177.938 137.993 177.958 137.967 177.976 137.941C178.055 137.831 178.11 137.706 178.137 137.573C178.197 137.291 178.144 136.896 177.689 136.441C177.561 136.305 177.453 136.15 177.369 135.983C176.685 134.687 176.34 131.942 176.34 131.942C176.34 131.942 175.732 110.201 173.739 106.879C173.633 106.706 171.518 103.373 171.407 103.305C169.158 101.956 150.595 103.819 150.595 103.819C150.595 103.819 149.534 106.671 149.486 106.968C149.227 108.636 148.485 114.767 150.012 123.166Z" fill="#030A78"/>
<path d="M150.118 116.965C150.331 116.733 150.491 116.457 150.586 116.157C150.681 115.856 150.709 115.539 150.668 115.226C150.627 114.914 150.518 114.614 150.349 114.348C150.179 114.083 149.954 113.857 149.688 113.688L151.454 106.235L147.716 107.601L146.612 114.469C146.357 114.934 146.282 115.477 146.401 115.994C146.52 116.511 146.824 116.967 147.256 117.274C147.688 117.582 148.218 117.72 148.746 117.663C149.273 117.606 149.761 117.358 150.118 116.965Z" fill="#3083D2"/>
<path d="M153.106 71.5869C153.106 71.5869 154.958 68.8282 158.602 65.1845C160.531 64.5415 163.873 64.9162 165.032 65.1845C170.39 72.2577 170.727 71.7876 172.122 75.7397C172.484 76.7645 172.665 77.7491 172.504 78.5529C171.861 81.768 172.892 98.0125 173.106 98.8698C173.32 99.7272 174.821 100.799 173.32 100.799C171.82 100.799 149.1 99.9415 149.529 99.2985C149.957 98.6555 153.106 71.5869 153.106 71.5869Z" fill="#F0F0F7"/>
<path d="M155.25 71.5869H153.107C153.107 71.5869 150.749 73.3016 150.963 75.2307C151.178 77.1597 148.605 93.8782 148.605 96.0216C148.605 98.165 147.748 98.808 147.748 100.094C147.748 101.38 148.177 102.237 147.748 102.88C147.319 103.523 146.462 107.382 146.676 108.882C146.801 109.878 146.801 110.886 146.676 111.883H150.535C150.535 111.883 154.393 98.808 155.25 98.165C155.618 97.8842 155.922 97.5292 156.144 97.123C156.365 96.7168 156.499 96.2685 156.536 95.8072C156.536 95.1642 156.107 95.1642 157.179 94.3069C158.251 93.4495 157.608 89.5914 157.608 89.5914L159.108 85.7333L155.25 71.5869Z" fill="#F0F0F7"/>
<path d="M159.652 62.4411C163.08 62.4411 165.859 59.6624 165.859 56.2346C165.859 52.8068 163.08 50.0281 159.652 50.0281C156.224 50.0281 153.446 52.8068 153.446 56.2346C153.446 59.6624 156.224 62.4411 159.652 62.4411Z" fill="#3083D2"/>
<path d="M155.305 67.866L154.723 65.3141C154.532 64.4602 154.513 63.5765 154.669 62.7153C154.824 61.854 155.15 61.0326 155.628 60.2994C156.067 59.6081 156.312 58.8114 156.336 57.9928C156.361 57.1743 156.165 56.3643 155.768 55.6478C155.093 54.4185 153.927 53.6845 152.651 53.6845H152.496V53.5295C152.496 51.304 154.231 49.7332 155.843 49.6431C155.901 49.18 156.23 48.7649 156.801 48.4353C158.167 47.6481 160.806 47.4774 162.801 48.5265C162.838 48.1873 162.966 47.8644 163.171 47.592C163.377 47.3196 163.652 47.1079 163.968 46.9793C164.296 46.8654 164.649 46.8451 164.987 46.9208C165.017 46.3628 165.247 45.8344 165.636 45.4334C166.187 44.8997 167.07 44.6969 168.06 44.8758C169.419 45.1225 170.759 45.9885 171.833 47.3146C172.785 48.4902 173.445 49.8757 174.084 51.2156C174.713 52.5333 175.363 53.8959 176.304 55.0496C177.336 56.3134 178.615 57.1324 179.905 57.3554C181.409 57.6158 182.953 56.9965 183.659 55.8499L183.799 55.6223L183.927 55.8571C184.721 57.3155 184.396 59.3194 183.155 60.6219C182.042 61.7901 180.295 62.3852 178.484 62.2124C176.951 62.0666 175.404 61.4149 173.887 60.2758C172.38 59.1443 171.449 57.8936 171.118 56.5583C171.025 56.1452 170.959 55.7266 170.919 55.3051C170.816 54.4221 170.719 53.5881 170.176 52.9742C169.688 52.4223 168.932 52.1831 168.263 52.0024L168.131 51.9672C168.107 52.2159 168.029 52.4563 167.903 52.6718C167.776 52.8872 167.604 53.0725 167.399 53.2147C167.275 53.2889 167.14 53.341 166.999 53.3688C167.776 56.4948 167.456 58.8881 166.049 60.4837C163.673 63.1775 159.108 62.6234 158.915 62.5987L158.787 62.5821L158.78 62.4527C158.763 62.1054 158.72 61.7599 158.653 61.4187C157.999 62.994 155.8 67.1598 155.506 67.5799L155.305 67.866Z" fill="#030A78"/>
</g>
<defs>
<clipPath id="clip0_765_5686">
<rect width="204.006" height="172.568" fill="white" transform="translate(0.78125)"/>
</clipPath>
</defs>
</svg>
