<svg width="15" height="15" viewBox="0 0 15 15" fill="none" xmlns="http://www.w3.org/2000/svg">
<path fill-rule="evenodd" clip-rule="evenodd" d="M7.03902 0.759277C3.2638 0.759277 0.203369 3.75141 0.203369 7.4424C0.203369 11.1334 3.2638 14.1255 7.03902 14.1255C8.65393 14.1255 10.138 13.578 11.3078 12.6625L13.5292 14.8287L13.5883 14.8785C13.7946 15.0277 14.087 15.0107 14.2737 14.8278C14.479 14.6265 14.4786 14.3006 14.2727 14.0999L12.0773 11.9591C13.1935 10.7696 13.8747 9.18379 13.8747 7.4424C13.8747 3.75141 10.8142 0.759277 7.03902 0.759277ZM7.03812 1.78867C10.2319 1.78867 12.8209 4.31994 12.8209 7.44241C12.8209 10.5649 10.2319 13.0962 7.03812 13.0962C3.84438 13.0962 1.25534 10.5649 1.25534 7.44241C1.25534 4.31994 3.84438 1.78867 7.03812 1.78867Z" fill="#F0F0F7"/>
</svg>
