<svg width="19" height="18" viewBox="0 0 19 18" fill="none" xmlns="http://www.w3.org/2000/svg">
<ellipse cx="8.6952" cy="5.45852" rx="3.58436" ry="3.58352" stroke="#4F54A1" stroke-width="1.19" stroke-linecap="round" stroke-linejoin="round"/>
<path fill-rule="evenodd" clip-rule="evenodd" d="M3.00966 14.0262C3.00869 13.7742 3.06505 13.5254 3.17445 13.2985C3.51778 12.612 4.48597 12.2481 5.28936 12.0834C5.86877 11.9598 6.45618 11.8772 7.04721 11.8362C8.14147 11.7401 9.24205 11.7401 10.3363 11.8362C10.9273 11.8776 11.5147 11.9602 12.0942 12.0834C12.8975 12.2481 13.8657 12.5777 14.2091 13.2985C14.4291 13.7611 14.4291 14.2981 14.2091 14.7607C13.8657 15.4815 12.8975 15.8111 12.0942 15.969C11.5154 16.0977 10.9278 16.1826 10.3363 16.223C9.44567 16.2984 8.55088 16.3122 7.65834 16.2642C7.45234 16.2642 7.25321 16.2642 7.04721 16.223C6.45792 16.1831 5.87255 16.0982 5.29623 15.969C4.48597 15.8111 3.52465 15.4815 3.17445 14.7607C3.06561 14.5312 3.00931 14.2802 3.00966 14.0262Z" stroke="#4F54A1" stroke-width="1.19" stroke-linecap="round" stroke-linejoin="round"/>
</svg>
