<svg width="23" height="24" viewBox="0 0 23 24" fill="none" xmlns="http://www.w3.org/2000/svg">
<g clip-path="url(#clip0_765_4559)">
<rect width="22.4919" height="22.4919" transform="translate(0.318359 0.581055)" fill="#F0F0F7"/>
<path d="M18.9899 10.3118C19.0608 10.1405 19.0794 9.95203 19.0432 9.7702C19.007 9.58837 18.9177 9.42136 18.7865 9.2903L14.1007 4.60449L12.7756 5.92964L15.8616 9.01571H4.06651V10.89H18.1239C18.3093 10.8901 18.4905 10.8352 18.6446 10.7323C18.7987 10.6293 18.9189 10.483 18.9899 10.3118ZM4.13774 13.3426C4.06679 13.5139 4.04824 13.7024 4.08444 13.8842C4.12064 14.066 4.20996 14.233 4.3411 14.3641L9.02691 19.0499L10.3521 17.7248L7.26599 14.6387H19.0611V12.7644H5.00368C4.81831 12.7642 4.63706 12.819 4.48291 12.922C4.32875 13.0249 4.20862 13.1713 4.13774 13.3426Z" fill="#030A78"/>
</g>
<defs>
<clipPath id="clip0_765_4559">
<rect width="22.4919" height="22.4919" fill="white" transform="translate(0.318359 0.581055)"/>
</clipPath>
</defs>
</svg>
