<svg width="137" height="27" viewBox="0 0 137 27" fill="none" xmlns="http://www.w3.org/2000/svg">
<path fill-rule="evenodd" clip-rule="evenodd" d="M2.52193 0.877047H21.5937C40.3143 0.877047 48.806 12.9509 37.6988 22.0358C36.5504 22.9752 36.3179 23.4245 37.6723 23.4245H57.9363C62.4808 23.4245 62.8171 20.1932 59.8038 18.4338C55.3965 15.8611 50.6121 14.5198 46.87 11.6501C40.543 6.79812 44.8782 0.777239 56.1462 0.777239H85.6117C87.1573 0.777239 87.817 1.4247 87.817 2.53756V6.5334C87.817 7.61704 88.2335 7.62837 89.5141 7.62837H107.841C108.878 7.62837 109.518 8.28566 110.078 9.09313L119.503 22.6649C120.143 23.588 120.248 23.6713 121.077 22.5616L131.344 8.81642C131.936 8.02303 132.682 7.68497 133.578 7.68497H136.463L123.114 25.5313C122.634 26.1721 121.926 26.2276 121.061 26.2276H84.3205C77.3293 26.2276 76.5324 23.7685 76.5324 19.0828V5.33722C76.5324 4.11652 76.1071 3.7255 74.9201 3.7255H60.7504C56.4309 3.7255 53.8876 6.43117 58.2055 8.90117C63.0072 11.6483 67.9533 12.0275 71.8998 16.4185C77.0397 22.1381 71.0745 26.243 60.8176 26.243H2.97066C0.19964 26.243 0.528994 24.6425 0.528994 22.8437V3.04328C0.528994 1.36451 1.46799 0.877047 2.52193 0.877047ZM11.3445 4.81326V21.9157C11.3445 23.1123 11.6847 23.4087 13.1771 23.4087H17.8951C25.3704 23.4087 32.9702 19.0302 31.2411 11.5659C29.9025 5.78701 23.6963 3.62555 18.1652 3.62555H12.2255C11.5161 3.62555 11.3445 4.17843 11.3445 4.81326ZM88.7826 10.4446H98.0317C98.9122 10.4446 99.4484 10.8432 100.035 11.6163L109.123 23.5891H90.4829C88.7404 23.5891 87.7147 22.8407 87.7147 21.4908V11.3531C87.7147 10.7514 88.1681 10.4446 88.7826 10.4446Z" fill="#1F94D3"/>
</svg>
