<svg width="19" height="17" viewBox="0 0 19 17" fill="none" xmlns="http://www.w3.org/2000/svg">
<path d="M18.0903 8.53506C17.8964 9.05167 17.4161 9.38554 16.8661 9.38554H16.4186V15.8285C16.4186 16.1518 16.1562 16.4143 15.8329 16.4143H12.3186V12.3142C12.3186 10.6993 11.0048 9.38554 9.38993 9.38554C7.77508 9.38554 6.46129 10.6993 6.46129 12.3142V16.4143H2.94694C2.62362 16.4143 2.36121 16.1518 2.36121 15.8285V9.38554H1.91313C1.36313 9.38554 0.882837 9.05226 0.688962 8.53565C0.495086 8.01904 0.637418 7.45088 1.05211 7.0889L7.89281 0.610771C8.73274 -0.184059 10.0477 -0.184059 10.887 0.610771L17.7441 7.10413C18.1413 7.4503 18.2842 8.01845 18.0903 8.53506Z" fill="#030A78"/>
</svg>
