<svg width="46" height="46" viewBox="0 0 46 46" fill="none" xmlns="http://www.w3.org/2000/svg">
<rect y="0.000488281" width="45.5057" height="45.5057" rx="22.7528" fill="#030A78"/>
<circle cx="22.3532" cy="18.2768" r="4.52974" stroke="white" stroke-width="1.42205" stroke-linecap="round" stroke-linejoin="round"/>
<path fill-rule="evenodd" clip-rule="evenodd" d="M15.1681 29.1068C15.1669 28.7884 15.2381 28.4739 15.3764 28.187C15.8103 27.3192 17.0338 26.8593 18.0491 26.6511C18.7813 26.4948 19.5237 26.3904 20.2706 26.3387C21.6534 26.2172 23.0443 26.2172 24.4272 26.3387C25.174 26.391 25.9163 26.4954 26.6487 26.6511C27.6639 26.8593 28.8875 27.2759 29.3214 28.187C29.5994 28.7717 29.5994 29.4506 29.3214 30.0353C28.8875 30.9465 27.6639 31.363 26.6487 31.5626C25.9173 31.7253 25.1747 31.8327 24.4272 31.8837C23.3016 31.9791 22.1708 31.9965 21.0429 31.9358C20.7826 31.9358 20.5309 31.9358 20.2706 31.8837C19.5259 31.8333 18.7861 31.726 18.0578 31.5626C17.0338 31.363 15.8189 30.9465 15.3764 30.0353C15.2388 29.7452 15.1677 29.428 15.1681 29.1068Z" stroke="white" stroke-width="1.42205" stroke-linecap="round" stroke-linejoin="round"/>
</svg>
