<svg width="43" height="43" viewBox="0 0 43 43" fill="none" xmlns="http://www.w3.org/2000/svg">
<path d="M9.90125 42.378H1.19375V14.3373H9.90125V42.378ZM5.54281 10.5123C2.75844 10.5123 0.5 8.20609 0.5 5.42172C0.5 4.08428 1.03129 2.80162 1.97701 1.85591C2.92272 0.910201 4.20538 0.378906 5.54281 0.378906C6.88025 0.378906 8.16291 0.910201 9.10862 1.85591C10.0543 2.80162 10.5856 4.08428 10.5856 5.42172C10.5856 8.20609 8.32625 10.5123 5.54281 10.5123ZM42.4906 42.378H33.8019V28.728C33.8019 25.4748 33.7362 21.303 29.2747 21.303C24.7475 21.303 24.0538 24.8373 24.0538 28.4936V42.378H15.3556V14.3373H23.7069V18.1623H23.8288C24.9912 15.9592 27.8309 13.6342 32.0675 13.6342C40.88 13.6342 42.5 19.4373 42.5 26.9748V42.378H42.4906Z" fill="#1D1E26"/>
</svg>
