<svg width="139" height="24" viewBox="0 0 139 24" fill="none" xmlns="http://www.w3.org/2000/svg">
<path d="M37.8248 20.6766L34.1737 4.62874C33.9544 3.6591 33.2231 2.88988 32.267 2.61903L23.3695 0.105548C22.2618 -0.208638 21.108 0.192221 20.4308 1.12665C19.7564 2.06108 19.7375 3.28262 20.3821 4.23601L24.3609 10.1189L20.7748 18.1658C20.7531 18.2146 20.7369 18.2633 20.7206 18.3121C20.401 19.4036 19.4937 19.7801 18.7461 19.7638C18.0013 19.7503 17.1048 19.344 16.8258 18.2417C16.8123 18.1902 16.796 18.1414 16.7771 18.0927L13.5404 10.1134L17.5138 4.23601C18.1584 3.27991 18.1394 2.06108 17.465 1.12665C16.7906 0.192221 15.6368 -0.208638 14.5263 0.105548L5.62889 2.61903C4.67279 2.88988 3.94149 3.6591 3.72211 4.62874L0.07105 20.6766C-0.224176 21.9685 0.420446 23.2415 1.63656 23.7697C1.99679 23.9268 2.36786 23.9999 2.7335 23.9999C3.60564 23.9999 4.43986 23.572 4.9626 22.8L11.9776 12.4211L14.6048 18.8971C15.1168 20.7687 16.7554 22.0444 18.7028 22.0769C18.7299 22.0769 18.757 22.0769 18.7841 22.0769C20.699 22.0769 22.3403 20.8689 22.9118 19.0407L25.883 12.375L32.9305 22.7973C33.4533 23.572 34.2875 23.9972 35.1596 23.9972C35.5253 23.9972 35.8991 23.9214 36.2566 23.767C37.4727 23.2415 38.1173 21.9712 37.8248 20.6766ZM3.0504 21.5054C2.92581 21.6896 2.76059 21.7383 2.55474 21.6489C2.3516 21.5596 2.27306 21.4052 2.32181 21.1885L5.97287 5.14064C6.00537 4.99709 6.11371 4.88334 6.25726 4.84271L15.1547 2.32922C15.3903 2.26151 15.5312 2.39694 15.5907 2.4809C15.653 2.56757 15.7343 2.74091 15.5989 2.94405L11.3682 9.20068C11.3005 9.27652 11.2436 9.36048 11.1976 9.45257L3.0504 21.5054ZM35.3384 21.6489C35.1353 21.7383 34.9673 21.6896 34.8427 21.5054L26.72 9.4932C26.6712 9.39028 26.6062 9.29548 26.5304 9.21152L22.2943 2.94405C22.1561 2.74091 22.2401 2.56757 22.3024 2.4809C22.3512 2.41048 22.4541 2.31026 22.6166 2.31026C22.6545 2.31026 22.6951 2.31568 22.7412 2.32922L31.6386 4.84271C31.7821 4.88334 31.8905 4.99709 31.923 5.14064L35.574 21.1885C35.6201 21.4079 35.5415 21.5623 35.3384 21.6489Z" fill="#030A78"/>
<path d="M54.8855 19.8933L50.0978 6.77568L49.0982 19.7801H47.8948L49.1887 4.48535H50.4601L55.4516 18.3955L60.4657 4.48535H61.7144L63.0084 19.7801H61.805L60.8054 6.77568L56.0403 19.8933H54.8855Z" fill="#030A78"/>
<path d="M65.0981 15.0832C65.0981 13.5628 65.4605 12.3821 66.1883 11.4989C66.9129 10.6126 67.9578 10.1597 69.2971 10.1597C70.6363 10.1597 71.6812 10.6126 72.4058 11.4989C73.1305 12.3853 73.496 13.5628 73.496 15.0832C73.496 16.6036 73.1337 17.807 72.4058 18.6902C71.6812 19.5765 70.6363 20.0068 69.2971 20.0068C67.9578 20.0068 66.9129 19.5765 66.1883 18.6902C65.4605 17.807 65.0981 16.6036 65.0981 15.0832ZM69.2971 18.9651C71.2251 18.9651 72.2473 17.5353 72.2473 15.1059C72.2473 12.7444 71.293 11.2013 69.2971 11.2013C67.3917 11.2013 66.3695 12.6312 66.3695 15.0832C66.3695 17.4447 67.2979 18.9651 69.2971 18.9651Z" fill="#030A78"/>
<path d="M75.8479 19.7802V10.9747C77.006 10.4312 78.232 10.1562 79.5228 10.1562C81.6999 10.1562 83.0844 11.2238 83.0844 13.6047V19.7769H81.8811V13.7858C81.8811 12.0616 81.0853 11.1979 79.4743 11.1979C78.6558 11.1979 77.8406 11.3338 77.0448 11.6281V19.7737H75.8479V19.7802Z" fill="#030A78"/>
<path d="M86.426 6.18701C86.9921 6.18701 87.2671 6.45875 87.2671 6.98281C87.2671 7.48099 87.018 7.73007 86.5166 7.73007C85.9504 7.73007 85.6528 7.45834 85.6528 6.93428C85.6561 6.43611 85.9052 6.18701 86.426 6.18701ZM87.0406 10.3633V19.7802H85.8372V10.3633H87.0406Z" fill="#030A78"/>
<path d="M90.7155 18.7355C89.7839 17.8944 89.3083 16.6489 89.3083 14.9927C89.3083 12.0198 90.9873 10.1597 93.5299 10.1597C95.707 10.1597 97.0916 11.5216 97.0916 14.1322V15.1544H90.557C90.625 17.765 92.2586 18.9684 94.4616 18.9684C95.1636 18.9684 96.0726 18.8325 97.1628 18.5834L97.0948 19.6057C96.0726 19.8774 95.1668 20.0133 94.371 20.0133C92.8926 20.0068 91.6698 19.5765 90.7155 18.7355ZM95.8429 14.2195V13.9704C95.8429 12.1783 94.9565 11.156 93.5041 11.156C91.961 11.156 90.8255 12.2915 90.5764 14.2195H95.8429Z" fill="#030A78"/>
<path d="M104.509 19.7802H101.31L98.2463 10.3633H100.97L102.943 17.671L104.962 10.3633H107.55L104.509 19.7802Z" fill="#030A78"/>
<path d="M109.614 18.7128C108.592 17.8491 108.071 16.6263 108.071 15.0606C108.071 13.5855 108.501 12.4047 109.388 11.5216C110.274 10.6126 111.429 10.1597 112.881 10.1597C115.492 10.1597 117.035 11.7254 117.035 14.7889V15.8111H110.704C111.021 17.1956 112.157 17.8976 114.107 17.8976C114.949 17.8976 115.877 17.807 116.922 17.6032L116.831 19.6671C115.809 19.8936 114.745 20.0068 113.655 20.0068C111.998 20.0068 110.636 19.5765 109.614 18.7128ZM114.47 14.0836V13.9478C114.47 12.8802 113.836 12.1556 112.813 12.1556C111.746 12.1556 110.999 12.9255 110.727 14.0836H114.47Z" fill="#030A78"/>
<path d="M118.979 19.7802V11.2464C120.432 10.5218 121.952 10.1562 123.518 10.1562C125.97 10.1562 127.513 11.2691 127.513 13.7406V19.7769H124.993V14.284C124.993 12.8995 124.404 12.2201 123.246 12.2201C122.703 12.2201 122.111 12.356 121.499 12.6051V19.7769H118.979V19.7802Z" fill="#030A78"/>
<path d="M138.263 3.9873V19.3953C136.878 19.8029 135.584 20.0067 134.381 20.0067C131.181 20.0067 129.276 18.2598 129.276 14.9699C129.276 11.8158 130.977 10.1596 133.769 10.1596C134.52 10.1596 135.176 10.2728 135.743 10.4992V4.48548L138.263 3.9873ZM135.746 12.4952C135.315 12.314 134.837 12.2234 134.316 12.2234C132.705 12.2234 131.886 13.1551 131.886 15.0378C131.886 17.0111 132.841 17.9428 134.384 17.9428C134.905 17.9428 135.361 17.8749 135.746 17.739V12.4952Z" fill="#030A78"/>
</svg>
