<?xml version="1.0" encoding="utf-8"?>
<!-- Generator: Adobe Illustrator 25.0.0, SVG Export Plug-In . SVG Version: 6.00 Build 0)  -->
<svg version="1.1" id="Layer_1" xmlns="http://www.w3.org/2000/svg" xmlns:xlink="http://www.w3.org/1999/xlink" x="0px" y="0px"
	 viewBox="0 0 500 500" style="enable-background:new 0 0 500 500;" xml:space="preserve">
<style type="text/css">
	.st0{fill:#030A78;}
	.st1{fill:#EBEBEB;}
	.st2{clip-path:url(#SVGID_2_);}
	.st3{clip-path:url(#SVGID_4_);fill:#EBEBEB;}
	.st4{clip-path:url(#SVGID_6_);fill:#EBEBEB;}
	.st5{clip-path:url(#SVGID_8_);fill:#EBEBEB;}
	.st6{clip-path:url(#SVGID_10_);fill:#EBEBEB;}
	.st7{clip-path:url(#SVGID_12_);fill:#EBEBEB;}
	.st8{clip-path:url(#SVGID_14_);fill:#EBEBEB;}
	.st9{clip-path:url(#SVGID_16_);fill:#EBEBEB;}
	.st10{clip-path:url(#SVGID_18_);fill:#EBEBEB;}
	.st11{clip-path:url(#SVGID_20_);fill:#EBEBEB;}
	.st12{clip-path:url(#SVGID_22_);fill:#EBEBEB;}
	.st13{clip-path:url(#SVGID_24_);fill:#EBEBEB;}
	.st14{clip-path:url(#SVGID_26_);fill:#EBEBEB;}
	.st15{clip-path:url(#SVGID_28_);fill:#EBEBEB;}
	.st16{clip-path:url(#SVGID_30_);fill:#EBEBEB;}
	.st17{clip-path:url(#SVGID_32_);fill:#EBEBEB;}
	.st18{clip-path:url(#SVGID_34_);fill:#EBEBEB;}
	.st19{clip-path:url(#SVGID_36_);fill:#EBEBEB;}
	.st20{clip-path:url(#SVGID_38_);fill:#EBEBEB;}
	.st21{clip-path:url(#SVGID_40_);fill:#EBEBEB;}
	.st22{clip-path:url(#SVGID_42_);fill:#EBEBEB;}
	.st23{clip-path:url(#SVGID_44_);fill:#EBEBEB;}
	.st24{clip-path:url(#SVGID_46_);fill:#EBEBEB;}
	.st25{clip-path:url(#SVGID_48_);fill:#EBEBEB;}
	.st26{clip-path:url(#SVGID_50_);fill:#EBEBEB;}
	.st27{clip-path:url(#SVGID_52_);fill:#EBEBEB;}
	.st28{fill:#FFFFFF;}
	.st29{opacity:0.07;}
	.st30{fill:url(#SVGID_53_);}
	.st31{fill:#FFFFFF;stroke:#231F20;stroke-width:1.3643;stroke-miterlimit:10;}
	.st32{fill:none;stroke:#03435F;stroke-miterlimit:10;}
	.st33{fill:none;stroke:#000000;stroke-miterlimit:10;}
	.st34{fill:none;stroke:#000000;stroke-width:1.2159;stroke-miterlimit:10;}
	.st35{fill:none;stroke:#000000;stroke-width:0.875;stroke-miterlimit:10;}
	.st36{fill:none;stroke:#000000;stroke-width:1.1734;stroke-miterlimit:10;}
	.st37{fill:none;stroke:#000000;stroke-width:5;stroke-linecap:round;stroke-linejoin:round;stroke-miterlimit:10;}
	.st38{fill:none;stroke:#000000;stroke-width:7;stroke-linecap:round;stroke-linejoin:round;stroke-miterlimit:10;}
	.st39{fill:none;stroke:#000000;stroke-width:25;stroke-linecap:round;stroke-linejoin:round;stroke-miterlimit:10;}
	.st40{fill:url(#SVGID_54_);}
	.st41{fill:#1C1C1C;}
	.st42{fill:url(#SVGID_55_);}
	.st43{fill:url(#SVGID_56_);}
	.st44{fill:#EDEDED;}
	.st45{fill:url(#SVGID_57_);}
	.st46{fill:url(#SVGID_58_);}
	.st47{fill:#011B33;}
	.st48{fill:#160F3B;}
	.st49{fill:#0C0F4B;}
	.st50{fill:#4EA0F4;}
	.st51{fill:#1161FF;}
	.st52{fill:#2728DF;}
	.st53{fill:#295FE9;}
	.st54{fill:#3083D2;}
	.st55{fill:#29C0E9;}
	.st56{fill:#27DFD2;}
	.st57{fill:#030A85;}
	.st58{fill:#0A0A64;}
	.st59{fill:#03399F;}
	.st60{fill:#8FA5D2;}
	.st61{fill:#034A9F;}
	.st62{fill:url(#SVGID_59_);}
	.st63{fill:url(#SVGID_60_);}
	.st64{fill:url(#SVGID_61_);}
	.st65{fill:url(#SVGID_62_);}
	.st66{fill:url(#SVGID_63_);}
	.st67{fill:url(#SVGID_64_);}
	.st68{fill:url(#SVGID_65_);}
	.st69{clip-path:url(#SVGID_67_);}
	.st70{fill:url(#SVGID_68_);}
	.st71{opacity:0.36;fill:#EBEBEB;}
	.st72{opacity:0.65;fill:none;stroke:#EBEBEB;stroke-width:0.75;stroke-miterlimit:10;}
	.st73{opacity:0.65;}
	.st74{fill:none;stroke:#EBEBEB;stroke-width:0.75;stroke-miterlimit:10;}
	.st75{fill:url(#SVGID_69_);}
	.st76{fill:url(#SVGID_70_);}
	.st77{fill:url(#SVGID_71_);}
	.st78{opacity:0.25;fill:none;stroke:url(#SVGID_72_);stroke-width:2;stroke-miterlimit:10;}
	.st79{fill:url(#SVGID_73_);}
	.st80{fill:url(#SVGID_74_);}
	.st81{fill:url(#SVGID_75_);}
	.st82{fill:url(#SVGID_76_);}
	.st83{fill:none;stroke:#1C1C1C;stroke-width:0.75;stroke-miterlimit:10;}
	.st84{fill:none;stroke:#1C1C1C;stroke-width:0.75;stroke-miterlimit:10;stroke-dasharray:5.0598,5.0598;}
	.st85{fill:none;stroke:#1C1C1C;stroke-width:0.75;stroke-miterlimit:10;stroke-dasharray:4.901,4.901;}
	.st86{fill:url(#SVGID_77_);}
	.st87{fill:url(#SVGID_78_);}
	.st88{fill:none;stroke:url(#SVGID_79_);stroke-miterlimit:10;}
	.st89{fill:none;stroke:url(#SVGID_80_);stroke-miterlimit:10;}
	.st90{fill:none;stroke:url(#SVGID_81_);stroke-width:12;stroke-miterlimit:10;}
	.st91{opacity:0.05;fill:url(#);}
	.st92{opacity:0.05;}
	.st93{clip-path:url(#SVGID_83_);}
	.st94{clip-path:url(#SVGID_85_);fill:#EBEBEB;}
	.st95{clip-path:url(#SVGID_87_);fill:#EBEBEB;}
	.st96{clip-path:url(#SVGID_89_);fill:#EBEBEB;}
	.st97{clip-path:url(#SVGID_91_);fill:#EBEBEB;}
	.st98{clip-path:url(#SVGID_93_);fill:#EBEBEB;}
	.st99{clip-path:url(#SVGID_95_);fill:#EBEBEB;}
	.st100{clip-path:url(#SVGID_97_);fill:#EBEBEB;}
	.st101{clip-path:url(#SVGID_99_);fill:#EBEBEB;}
	.st102{clip-path:url(#SVGID_101_);fill:#EBEBEB;}
	.st103{clip-path:url(#SVGID_103_);fill:#EBEBEB;}
	.st104{clip-path:url(#SVGID_105_);fill:#EBEBEB;}
	.st105{clip-path:url(#SVGID_107_);fill:#EBEBEB;}
	.st106{clip-path:url(#SVGID_109_);fill:#EBEBEB;}
	.st107{clip-path:url(#SVGID_111_);fill:#EBEBEB;}
	.st108{clip-path:url(#SVGID_113_);fill:#EBEBEB;}
	.st109{clip-path:url(#SVGID_115_);fill:#EBEBEB;}
	.st110{clip-path:url(#SVGID_117_);fill:#EBEBEB;}
	.st111{clip-path:url(#SVGID_119_);fill:#EBEBEB;}
	.st112{clip-path:url(#SVGID_121_);fill:#EBEBEB;}
	.st113{clip-path:url(#SVGID_123_);fill:#EBEBEB;}
	.st114{clip-path:url(#SVGID_125_);fill:#EBEBEB;}
	.st115{clip-path:url(#SVGID_127_);fill:#EBEBEB;}
	.st116{clip-path:url(#SVGID_129_);fill:#EBEBEB;}
	.st117{clip-path:url(#SVGID_131_);fill:#EBEBEB;}
	.st118{clip-path:url(#SVGID_133_);fill:#EBEBEB;}
	.st119{fill:#EEEEEE;}
	.st120{fill:none;stroke:#231F20;stroke-width:5;stroke-linecap:round;stroke-linejoin:round;stroke-miterlimit:10;}
	.st121{fill:#231F20;}
	.st122{fill:url(#SVGID_136_);}
	.st123{fill:url(#SVGID_137_);}
	.st124{fill:url(#SVGID_138_);}
	.st125{fill:url(#SVGID_139_);}
	.st126{fill:url(#SVGID_140_);}
	.st127{fill:url(#SVGID_141_);}
	.st128{fill:url(#SVGID_142_);}
	.st129{fill:url(#SVGID_143_);}
	.st130{fill:url(#SVGID_144_);}
	.st131{fill:url(#SVGID_145_);}
	.st132{fill:url(#SVGID_146_);}
	.st133{fill:url(#SVGID_147_);}
	.st134{fill:url(#SVGID_148_);}
	.st135{fill:url(#SVGID_149_);}
	.st136{fill:url(#SVGID_150_);}
	.st137{fill:url(#SVGID_151_);}
	.st138{fill:url(#SVGID_152_);}
	.st139{fill:url(#SVGID_153_);}
	.st140{fill:url(#SVGID_154_);}
	.st141{fill:url(#SVGID_155_);}
	.st142{fill:url(#SVGID_156_);}
	.st143{fill:url(#SVGID_157_);}
	.st144{fill:url(#SVGID_158_);}
	.st145{fill:url(#SVGID_159_);}
	.st146{fill:url(#SVGID_160_);}
	.st147{fill:url(#SVGID_161_);}
	.st148{fill:url(#SVGID_162_);}
	.st149{fill:url(#SVGID_163_);}
	.st150{fill:url(#SVGID_164_);}
	.st151{fill:url(#SVGID_165_);}
	.st152{fill:url(#SVGID_166_);}
	.st153{fill:url(#SVGID_167_);}
	.st154{fill:url(#SVGID_168_);}
	.st155{fill:url(#SVGID_169_);}
	.st156{fill:url(#SVGID_170_);}
	.st157{fill:url(#SVGID_171_);}
	.st158{fill:url(#SVGID_172_);}
	.st159{fill:url(#SVGID_173_);}
	.st160{fill:url(#SVGID_174_);}
	.st161{fill:url(#SVGID_175_);}
	.st162{fill:url(#SVGID_176_);}
	.st163{fill:url(#SVGID_177_);}
	.st164{fill:url(#SVGID_178_);}
	.st165{fill:url(#SVGID_179_);}
	.st166{fill:url(#SVGID_180_);}
	.st167{fill:url(#SVGID_181_);}
	.st168{fill:url(#SVGID_182_);}
	.st169{fill:url(#SVGID_183_);}
	.st170{fill:url(#SVGID_184_);}
	.st171{fill:url(#SVGID_185_);}
	.st172{fill:url(#SVGID_186_);}
	.st173{fill:url(#SVGID_187_);}
	.st174{fill:url(#SVGID_188_);}
	.st175{fill:url(#SVGID_189_);}
	.st176{fill:url(#SVGID_190_);}
	.st177{fill:url(#SVGID_191_);}
	.st178{fill:url(#SVGID_192_);}
	.st179{fill:url(#SVGID_193_);}
	.st180{fill:url(#SVGID_194_);}
	.st181{fill:url(#SVGID_195_);}
	.st182{fill:url(#SVGID_196_);}
	.st183{fill:url(#SVGID_197_);}
	.st184{fill:url(#SVGID_198_);}
	.st185{fill:url(#SVGID_199_);}
	.st186{fill:url(#SVGID_200_);}
	.st187{fill:url(#SVGID_201_);}
	.st188{fill:url(#SVGID_202_);}
	.st189{fill:url(#SVGID_203_);}
	.st190{fill:url(#SVGID_204_);}
	.st191{fill:url(#SVGID_205_);}
	.st192{fill:url(#SVGID_206_);}
	.st193{fill:url(#SVGID_207_);}
	.st194{fill:url(#SVGID_208_);}
	.st195{clip-path:url(#SVGID_210_);}
	.st196{clip-path:url(#SVGID_212_);fill:#EBEBEB;}
	.st197{clip-path:url(#SVGID_214_);fill:#EBEBEB;}
	.st198{clip-path:url(#SVGID_216_);fill:#EBEBEB;}
	.st199{clip-path:url(#SVGID_218_);fill:#EBEBEB;}
	.st200{clip-path:url(#SVGID_220_);fill:#EBEBEB;}
	.st201{clip-path:url(#SVGID_222_);fill:#EBEBEB;}
	.st202{clip-path:url(#SVGID_224_);fill:#EBEBEB;}
	.st203{clip-path:url(#SVGID_226_);fill:#EBEBEB;}
	.st204{clip-path:url(#SVGID_228_);fill:#EBEBEB;}
	.st205{clip-path:url(#SVGID_230_);fill:#EBEBEB;}
	.st206{clip-path:url(#SVGID_232_);fill:#EBEBEB;}
	.st207{clip-path:url(#SVGID_234_);fill:#EBEBEB;}
	.st208{clip-path:url(#SVGID_236_);fill:#EBEBEB;}
	.st209{clip-path:url(#SVGID_238_);fill:#EBEBEB;}
	.st210{clip-path:url(#SVGID_240_);fill:#EBEBEB;}
	.st211{clip-path:url(#SVGID_242_);fill:#EBEBEB;}
	.st212{clip-path:url(#SVGID_244_);fill:#EBEBEB;}
	.st213{clip-path:url(#SVGID_246_);fill:#EBEBEB;}
	.st214{clip-path:url(#SVGID_248_);fill:#EBEBEB;}
	.st215{clip-path:url(#SVGID_250_);fill:#EBEBEB;}
	.st216{clip-path:url(#SVGID_252_);fill:#EBEBEB;}
	.st217{clip-path:url(#SVGID_254_);fill:#EBEBEB;}
	.st218{clip-path:url(#SVGID_256_);fill:#EBEBEB;}
	.st219{clip-path:url(#SVGID_258_);fill:#EBEBEB;}
	.st220{clip-path:url(#SVGID_260_);fill:#EBEBEB;}
	.st221{fill:url(#SVGID_261_);}
	.st222{fill:url(#SVGID_262_);}
	.st223{fill:url(#SVGID_263_);}
	.st224{clip-path:url(#SVGID_265_);}
	.st225{clip-path:url(#SVGID_267_);fill:#EBEBEB;}
	.st226{clip-path:url(#SVGID_269_);fill:#EBEBEB;}
	.st227{clip-path:url(#SVGID_271_);fill:#EBEBEB;}
	.st228{clip-path:url(#SVGID_273_);fill:#EBEBEB;}
	.st229{clip-path:url(#SVGID_275_);fill:#EBEBEB;}
	.st230{clip-path:url(#SVGID_277_);fill:#EBEBEB;}
	.st231{clip-path:url(#SVGID_279_);fill:#EBEBEB;}
	.st232{clip-path:url(#SVGID_281_);fill:#EBEBEB;}
	.st233{clip-path:url(#SVGID_283_);fill:#EBEBEB;}
	.st234{clip-path:url(#SVGID_285_);fill:#EBEBEB;}
	.st235{clip-path:url(#SVGID_287_);fill:#EBEBEB;}
	.st236{clip-path:url(#SVGID_289_);fill:#EBEBEB;}
	.st237{clip-path:url(#SVGID_291_);fill:#EBEBEB;}
	.st238{clip-path:url(#SVGID_293_);fill:#EBEBEB;}
	.st239{clip-path:url(#SVGID_295_);fill:#EBEBEB;}
	.st240{clip-path:url(#SVGID_297_);fill:#EBEBEB;}
	.st241{clip-path:url(#SVGID_299_);fill:#EBEBEB;}
	.st242{clip-path:url(#SVGID_301_);fill:#EBEBEB;}
	.st243{clip-path:url(#SVGID_303_);fill:#EBEBEB;}
	.st244{clip-path:url(#SVGID_305_);fill:#EBEBEB;}
	.st245{clip-path:url(#SVGID_307_);fill:#EBEBEB;}
	.st246{clip-path:url(#SVGID_309_);fill:#EBEBEB;}
	.st247{clip-path:url(#SVGID_311_);fill:#EBEBEB;}
	.st248{clip-path:url(#SVGID_313_);fill:#EBEBEB;}
	.st249{clip-path:url(#SVGID_315_);fill:#EBEBEB;}
	.st250{fill:url(#SVGID_316_);}
	.st251{fill:url(#SVGID_317_);}
	.st252{fill:url(#SVGID_318_);}
</style>
<g>
	<g>
		<linearGradient id="SVGID_2_" gradientUnits="userSpaceOnUse" x1="93.1813" y1="196.8762" x2="93.1813" y2="310.7484">
			<stop  offset="0" style="stop-color:#27DFD2"/>
			<stop  offset="1" style="stop-color:#3083D2"/>
		</linearGradient>
		<path style="fill:url(#SVGID_2_);" d="M162.88,282.03l-13.48-59.25c-0.81-3.58-3.51-6.42-7.04-7.42l-32.85-9.28
			c-4.09-1.16-8.35,0.32-10.85,3.77c-2.49,3.45-2.56,7.96-0.18,11.48l14.69,21.72l-13.24,29.71c-0.08,0.18-0.14,0.36-0.2,0.54
			c-1.18,4.03-4.53,5.42-7.29,5.36c-2.75-0.05-6.06-1.55-7.09-5.62c-0.05-0.19-0.11-0.37-0.18-0.55l-11.95-29.46l14.67-21.7
			c2.38-3.53,2.31-8.03-0.18-11.48c-2.49-3.45-6.75-4.93-10.85-3.77l-32.85,9.28c-3.53,1-6.23,3.84-7.04,7.42l-13.48,59.25
			c-1.09,4.77,1.29,9.47,5.78,11.42c1.33,0.58,2.7,0.85,4.05,0.85c3.22,0,6.3-1.58,8.23-4.43l25.9-38.32l9.7,23.91
			c1.89,6.91,7.94,11.62,15.13,11.74c0.1,0,0.2,0,0.3,0c7.07,0,13.13-4.46,15.24-11.21l10.97-24.61l26.02,38.48
			c1.93,2.86,5.01,4.43,8.23,4.43c1.35,0,2.73-0.28,4.05-0.85C161.58,291.5,163.96,286.81,162.88,282.03z M34.49,285.09
			c-0.46,0.68-1.07,0.86-1.83,0.53c-0.75-0.33-1.04-0.9-0.86-1.7l13.48-59.25c0.12-0.53,0.52-0.95,1.05-1.1l32.85-9.28
			c0.87-0.25,1.39,0.25,1.61,0.56c0.23,0.32,0.53,0.96,0.03,1.71l-15.62,23.1c-0.25,0.28-0.46,0.59-0.63,0.93L34.49,285.09z
			 M153.7,285.62c-0.75,0.33-1.37,0.15-1.83-0.53l-29.99-44.35c-0.18-0.38-0.42-0.73-0.7-1.04l-15.64-23.14
			c-0.51-0.75-0.2-1.39,0.03-1.71c0.18-0.26,0.56-0.63,1.16-0.63c0.14,0,0.29,0.02,0.46,0.07l32.85,9.28
			c0.53,0.15,0.93,0.57,1.05,1.1l13.48,59.25C154.74,284.73,154.45,285.3,153.7,285.62z"/>
		<g>
			<path class="st0" d="M219.03,274.41l-14.8-40.55l-3.09,40.2h-3.72l4-47.28h3.93l15.43,43l15.5-43h3.86l4,47.28h-3.72l-3.09-40.2
				l-14.73,40.55H219.03z"/>
			<path class="st0" d="M250.6,259.54c0-4.7,1.12-8.35,3.37-11.08c2.24-2.74,5.47-4.14,9.61-4.14c4.14,0,7.37,1.4,9.61,4.14
				c2.24,2.74,3.37,6.38,3.37,11.08c0,4.7-1.12,8.42-3.37,11.15c-2.24,2.74-5.47,4.07-9.61,4.07c-4.14,0-7.37-1.33-9.61-4.07
				C251.72,267.96,250.6,264.24,250.6,259.54z M263.58,271.54c5.96,0,9.12-4.42,9.12-11.93c0-7.3-2.95-12.07-9.12-12.07
				c-5.89,0-9.05,4.42-9.05,12C254.53,266.84,257.4,271.54,263.58,271.54z"/>
			<path class="st0" d="M283.83,274.06v-27.22c3.58-1.68,7.37-2.53,11.36-2.53c6.73,0,11.01,3.3,11.01,10.66v19.08h-3.72v-18.52
				c0-5.33-2.46-8-7.44-8c-2.53,0-5.05,0.42-7.51,1.33v25.18H283.83z"/>
			<path class="st0" d="M316.53,232.04c1.75,0,2.6,0.84,2.6,2.46c0,1.54-0.77,2.31-2.32,2.31c-1.75,0-2.67-0.84-2.67-2.46
				C314.15,232.81,314.92,232.04,316.53,232.04z M318.43,244.95v29.11h-3.72v-29.11H318.43z"/>
			<path class="st0" d="M329.79,270.83c-2.88-2.6-4.35-6.45-4.35-11.57c0-9.19,5.19-14.94,13.05-14.94
				c6.73,0,11.01,4.21,11.01,12.28v3.16h-20.2c0.21,8.07,5.26,11.79,12.07,11.79c2.17,0,4.98-0.42,8.35-1.19l-0.21,3.16
				c-3.16,0.84-5.96,1.26-8.42,1.26C336.52,274.76,332.74,273.43,329.79,270.83z M345.64,256.87v-0.77c0-5.54-2.74-8.7-7.23-8.7
				c-4.77,0-8.28,3.51-9.05,9.47H345.64z"/>
			<path class="st0" d="M372.43,274.06h-9.89l-9.47-29.11h8.42l6.1,22.59l6.24-22.59h8L372.43,274.06z"/>
			<path class="st0" d="M388.21,270.76c-3.16-2.67-4.77-6.45-4.77-11.29c0-4.56,1.33-8.21,4.07-10.94c2.74-2.81,6.31-4.21,10.8-4.21
				c8.07,0,12.84,4.84,12.84,14.31v3.16h-19.57c0.98,4.28,4.49,6.45,10.52,6.45c2.6,0,5.47-0.28,8.7-0.91l-0.28,6.38
				c-3.16,0.7-6.45,1.05-9.82,1.05C395.58,274.76,391.37,273.43,388.21,270.76z M403.22,256.45v-0.42c0-3.3-1.96-5.54-5.12-5.54
				c-3.3,0-5.61,2.38-6.45,5.96H403.22z"/>
			<path class="st0" d="M417.16,274.06v-26.38c4.49-2.24,9.19-3.37,14.03-3.37c7.58,0,12.35,3.44,12.35,11.08v18.66h-7.79v-16.98
				c0-4.28-1.82-6.38-5.4-6.38c-1.68,0-3.51,0.42-5.4,1.19v22.17H417.16z"/>
			<path class="st0" d="M476.77,225.24v47.63c-4.28,1.26-8.28,1.89-12,1.89c-9.89,0-15.78-5.4-15.78-15.57
				c0-9.75,5.26-14.87,13.89-14.87c2.32,0,4.35,0.35,6.1,1.05v-18.59L476.77,225.24z M468.99,251.54c-1.33-0.56-2.81-0.84-4.42-0.84
				c-4.98,0-7.51,2.88-7.51,8.7c0,6.1,2.95,8.98,7.72,8.98c1.61,0,3.02-0.21,4.21-0.63V251.54z"/>
		</g>
	</g>
</g>
</svg>
