<?xml version="1.0" encoding="utf-8"?>
<!-- Generator: Adobe Illustrator 25.0.0, SVG Export Plug-In . SVG Version: 6.00 Build 0)  -->
<svg version="1.1" id="Layer_1" xmlns="http://www.w3.org/2000/svg" xmlns:xlink="http://www.w3.org/1999/xlink" x="0px" y="0px"
	 viewBox="0 0 500 500" style="enable-background:new 0 0 500 500;" xml:space="preserve">
<style type="text/css">
	.st0{fill:#030A78;}
	.st1{fill:#EBEBEB;}
	.st2{clip-path:url(#SVGID_2_);}
	.st3{clip-path:url(#SVGID_4_);fill:#EBEBEB;}
	.st4{clip-path:url(#SVGID_6_);fill:#EBEBEB;}
	.st5{clip-path:url(#SVGID_8_);fill:#EBEBEB;}
	.st6{clip-path:url(#SVGID_10_);fill:#EBEBEB;}
	.st7{clip-path:url(#SVGID_12_);fill:#EBEBEB;}
	.st8{clip-path:url(#SVGID_14_);fill:#EBEBEB;}
	.st9{clip-path:url(#SVGID_16_);fill:#EBEBEB;}
	.st10{clip-path:url(#SVGID_18_);fill:#EBEBEB;}
	.st11{clip-path:url(#SVGID_20_);fill:#EBEBEB;}
	.st12{clip-path:url(#SVGID_22_);fill:#EBEBEB;}
	.st13{clip-path:url(#SVGID_24_);fill:#EBEBEB;}
	.st14{clip-path:url(#SVGID_26_);fill:#EBEBEB;}
	.st15{clip-path:url(#SVGID_28_);fill:#EBEBEB;}
	.st16{clip-path:url(#SVGID_30_);fill:#EBEBEB;}
	.st17{clip-path:url(#SVGID_32_);fill:#EBEBEB;}
	.st18{clip-path:url(#SVGID_34_);fill:#EBEBEB;}
	.st19{clip-path:url(#SVGID_36_);fill:#EBEBEB;}
	.st20{clip-path:url(#SVGID_38_);fill:#EBEBEB;}
	.st21{clip-path:url(#SVGID_40_);fill:#EBEBEB;}
	.st22{clip-path:url(#SVGID_42_);fill:#EBEBEB;}
	.st23{clip-path:url(#SVGID_44_);fill:#EBEBEB;}
	.st24{clip-path:url(#SVGID_46_);fill:#EBEBEB;}
	.st25{clip-path:url(#SVGID_48_);fill:#EBEBEB;}
	.st26{clip-path:url(#SVGID_50_);fill:#EBEBEB;}
	.st27{clip-path:url(#SVGID_52_);fill:#EBEBEB;}
	.st28{fill:#FFFFFF;}
	.st29{opacity:0.07;}
	.st30{fill:url(#SVGID_53_);}
	.st31{fill:#FFFFFF;stroke:#231F20;stroke-width:1.3643;stroke-miterlimit:10;}
	.st32{fill:none;stroke:#03435F;stroke-miterlimit:10;}
	.st33{fill:none;stroke:#000000;stroke-miterlimit:10;}
	.st34{fill:none;stroke:#000000;stroke-width:1.2159;stroke-miterlimit:10;}
	.st35{fill:none;stroke:#000000;stroke-width:0.875;stroke-miterlimit:10;}
	.st36{fill:none;stroke:#000000;stroke-width:1.1734;stroke-miterlimit:10;}
	.st37{fill:none;stroke:#000000;stroke-width:5;stroke-linecap:round;stroke-linejoin:round;stroke-miterlimit:10;}
	.st38{fill:none;stroke:#000000;stroke-width:7;stroke-linecap:round;stroke-linejoin:round;stroke-miterlimit:10;}
	.st39{fill:none;stroke:#000000;stroke-width:25;stroke-linecap:round;stroke-linejoin:round;stroke-miterlimit:10;}
	.st40{fill:url(#SVGID_54_);}
	.st41{fill:#1C1C1C;}
	.st42{fill:url(#SVGID_55_);}
	.st43{fill:url(#SVGID_56_);}
	.st44{fill:#EDEDED;}
	.st45{fill:url(#SVGID_57_);}
	.st46{fill:url(#SVGID_58_);}
	.st47{fill:#011B33;}
	.st48{fill:#160F3B;}
	.st49{fill:#0C0F4B;}
	.st50{fill:#4EA0F4;}
	.st51{fill:#1161FF;}
	.st52{fill:#2728DF;}
	.st53{fill:#295FE9;}
	.st54{fill:#3083D2;}
	.st55{fill:#29C0E9;}
	.st56{fill:#27DFD2;}
	.st57{fill:#030A85;}
	.st58{fill:#0A0A64;}
	.st59{fill:#03399F;}
	.st60{fill:#8FA5D2;}
	.st61{fill:#034A9F;}
	.st62{fill:url(#SVGID_59_);}
	.st63{fill:url(#SVGID_60_);}
	.st64{fill:url(#SVGID_61_);}
	.st65{fill:url(#SVGID_62_);}
	.st66{fill:url(#SVGID_63_);}
	.st67{fill:url(#SVGID_64_);}
	.st68{fill:url(#SVGID_65_);}
	.st69{clip-path:url(#SVGID_67_);}
	.st70{fill:url(#SVGID_68_);}
	.st71{opacity:0.36;fill:#EBEBEB;}
	.st72{opacity:0.65;fill:none;stroke:#EBEBEB;stroke-width:0.75;stroke-miterlimit:10;}
	.st73{opacity:0.65;}
	.st74{fill:none;stroke:#EBEBEB;stroke-width:0.75;stroke-miterlimit:10;}
	.st75{fill:url(#SVGID_69_);}
	.st76{fill:url(#SVGID_70_);}
	.st77{fill:url(#SVGID_71_);}
	.st78{opacity:0.25;fill:none;stroke:url(#SVGID_72_);stroke-width:2;stroke-miterlimit:10;}
	.st79{fill:url(#SVGID_73_);}
	.st80{fill:url(#SVGID_74_);}
	.st81{fill:url(#SVGID_75_);}
	.st82{fill:url(#SVGID_76_);}
	.st83{fill:none;stroke:#1C1C1C;stroke-width:0.75;stroke-miterlimit:10;}
	.st84{fill:none;stroke:#1C1C1C;stroke-width:0.75;stroke-miterlimit:10;stroke-dasharray:5.0598,5.0598;}
	.st85{fill:none;stroke:#1C1C1C;stroke-width:0.75;stroke-miterlimit:10;stroke-dasharray:4.901,4.901;}
	.st86{fill:url(#SVGID_77_);}
	.st87{fill:url(#SVGID_78_);}
	.st88{fill:none;stroke:url(#SVGID_79_);stroke-miterlimit:10;}
	.st89{fill:none;stroke:url(#SVGID_80_);stroke-miterlimit:10;}
	.st90{fill:none;stroke:url(#SVGID_81_);stroke-width:12;stroke-miterlimit:10;}
	.st91{opacity:0.05;fill:url(#);}
	.st92{opacity:0.05;}
	.st93{clip-path:url(#SVGID_83_);}
	.st94{clip-path:url(#SVGID_85_);fill:#EBEBEB;}
	.st95{clip-path:url(#SVGID_87_);fill:#EBEBEB;}
	.st96{clip-path:url(#SVGID_89_);fill:#EBEBEB;}
	.st97{clip-path:url(#SVGID_91_);fill:#EBEBEB;}
	.st98{clip-path:url(#SVGID_93_);fill:#EBEBEB;}
	.st99{clip-path:url(#SVGID_95_);fill:#EBEBEB;}
	.st100{clip-path:url(#SVGID_97_);fill:#EBEBEB;}
	.st101{clip-path:url(#SVGID_99_);fill:#EBEBEB;}
	.st102{clip-path:url(#SVGID_101_);fill:#EBEBEB;}
	.st103{clip-path:url(#SVGID_103_);fill:#EBEBEB;}
	.st104{clip-path:url(#SVGID_105_);fill:#EBEBEB;}
	.st105{clip-path:url(#SVGID_107_);fill:#EBEBEB;}
	.st106{clip-path:url(#SVGID_109_);fill:#EBEBEB;}
	.st107{clip-path:url(#SVGID_111_);fill:#EBEBEB;}
	.st108{clip-path:url(#SVGID_113_);fill:#EBEBEB;}
	.st109{clip-path:url(#SVGID_115_);fill:#EBEBEB;}
	.st110{clip-path:url(#SVGID_117_);fill:#EBEBEB;}
	.st111{clip-path:url(#SVGID_119_);fill:#EBEBEB;}
	.st112{clip-path:url(#SVGID_121_);fill:#EBEBEB;}
	.st113{clip-path:url(#SVGID_123_);fill:#EBEBEB;}
	.st114{clip-path:url(#SVGID_125_);fill:#EBEBEB;}
	.st115{clip-path:url(#SVGID_127_);fill:#EBEBEB;}
	.st116{clip-path:url(#SVGID_129_);fill:#EBEBEB;}
	.st117{clip-path:url(#SVGID_131_);fill:#EBEBEB;}
	.st118{clip-path:url(#SVGID_133_);fill:#EBEBEB;}
	.st119{fill:#EEEEEE;}
	.st120{fill:none;stroke:#231F20;stroke-width:5;stroke-linecap:round;stroke-linejoin:round;stroke-miterlimit:10;}
	.st121{fill:#231F20;}
	.st122{fill:url(#SVGID_136_);}
	.st123{fill:url(#SVGID_137_);}
	.st124{fill:url(#SVGID_138_);}
	.st125{fill:url(#SVGID_139_);}
	.st126{fill:url(#SVGID_140_);}
	.st127{fill:url(#SVGID_141_);}
	.st128{fill:url(#SVGID_142_);}
	.st129{fill:url(#SVGID_143_);}
	.st130{fill:url(#SVGID_144_);}
	.st131{fill:url(#SVGID_145_);}
	.st132{fill:url(#SVGID_146_);}
	.st133{fill:url(#SVGID_147_);}
	.st134{fill:url(#SVGID_148_);}
	.st135{fill:url(#SVGID_149_);}
	.st136{fill:url(#SVGID_150_);}
	.st137{fill:url(#SVGID_151_);}
	.st138{fill:url(#SVGID_152_);}
	.st139{fill:url(#SVGID_153_);}
	.st140{fill:url(#SVGID_154_);}
	.st141{fill:url(#SVGID_155_);}
	.st142{fill:url(#SVGID_156_);}
	.st143{fill:url(#SVGID_157_);}
	.st144{fill:url(#SVGID_158_);}
	.st145{fill:url(#SVGID_159_);}
	.st146{fill:url(#SVGID_160_);}
	.st147{fill:url(#SVGID_161_);}
	.st148{fill:url(#SVGID_162_);}
	.st149{fill:url(#SVGID_163_);}
	.st150{fill:url(#SVGID_164_);}
	.st151{fill:url(#SVGID_165_);}
	.st152{fill:url(#SVGID_166_);}
	.st153{fill:url(#SVGID_167_);}
	.st154{fill:url(#SVGID_168_);}
	.st155{fill:url(#SVGID_169_);}
	.st156{fill:url(#SVGID_170_);}
	.st157{fill:url(#SVGID_171_);}
	.st158{fill:url(#SVGID_172_);}
	.st159{fill:url(#SVGID_173_);}
	.st160{fill:url(#SVGID_174_);}
	.st161{fill:url(#SVGID_175_);}
	.st162{fill:url(#SVGID_176_);}
	.st163{fill:url(#SVGID_177_);}
	.st164{fill:url(#SVGID_178_);}
	.st165{fill:url(#SVGID_179_);}
	.st166{fill:url(#SVGID_180_);}
	.st167{fill:url(#SVGID_181_);}
	.st168{fill:url(#SVGID_182_);}
	.st169{fill:url(#SVGID_183_);}
	.st170{fill:url(#SVGID_184_);}
	.st171{fill:url(#SVGID_185_);}
	.st172{fill:url(#SVGID_186_);}
	.st173{fill:url(#SVGID_187_);}
	.st174{fill:url(#SVGID_188_);}
	.st175{fill:url(#SVGID_189_);}
	.st176{fill:url(#SVGID_190_);}
	.st177{fill:url(#SVGID_191_);}
	.st178{fill:url(#SVGID_192_);}
	.st179{fill:url(#SVGID_193_);}
	.st180{fill:url(#SVGID_194_);}
	.st181{fill:url(#SVGID_195_);}
	.st182{fill:url(#SVGID_196_);}
	.st183{fill:url(#SVGID_197_);}
	.st184{fill:url(#SVGID_198_);}
	.st185{fill:url(#SVGID_199_);}
	.st186{fill:url(#SVGID_200_);}
	.st187{fill:url(#SVGID_201_);}
	.st188{fill:url(#SVGID_202_);}
	.st189{fill:url(#SVGID_203_);}
	.st190{fill:url(#SVGID_204_);}
	.st191{fill:url(#SVGID_205_);}
	.st192{fill:url(#SVGID_206_);}
	.st193{fill:url(#SVGID_207_);}
	.st194{fill:url(#SVGID_208_);}
	.st195{clip-path:url(#SVGID_210_);}
	.st196{clip-path:url(#SVGID_212_);fill:#EBEBEB;}
	.st197{clip-path:url(#SVGID_214_);fill:#EBEBEB;}
	.st198{clip-path:url(#SVGID_216_);fill:#EBEBEB;}
	.st199{clip-path:url(#SVGID_218_);fill:#EBEBEB;}
	.st200{clip-path:url(#SVGID_220_);fill:#EBEBEB;}
	.st201{clip-path:url(#SVGID_222_);fill:#EBEBEB;}
	.st202{clip-path:url(#SVGID_224_);fill:#EBEBEB;}
	.st203{clip-path:url(#SVGID_226_);fill:#EBEBEB;}
	.st204{clip-path:url(#SVGID_228_);fill:#EBEBEB;}
	.st205{clip-path:url(#SVGID_230_);fill:#EBEBEB;}
	.st206{clip-path:url(#SVGID_232_);fill:#EBEBEB;}
	.st207{clip-path:url(#SVGID_234_);fill:#EBEBEB;}
	.st208{clip-path:url(#SVGID_236_);fill:#EBEBEB;}
	.st209{clip-path:url(#SVGID_238_);fill:#EBEBEB;}
	.st210{clip-path:url(#SVGID_240_);fill:#EBEBEB;}
	.st211{clip-path:url(#SVGID_242_);fill:#EBEBEB;}
	.st212{clip-path:url(#SVGID_244_);fill:#EBEBEB;}
	.st213{clip-path:url(#SVGID_246_);fill:#EBEBEB;}
	.st214{clip-path:url(#SVGID_248_);fill:#EBEBEB;}
	.st215{clip-path:url(#SVGID_250_);fill:#EBEBEB;}
	.st216{clip-path:url(#SVGID_252_);fill:#EBEBEB;}
	.st217{clip-path:url(#SVGID_254_);fill:#EBEBEB;}
	.st218{clip-path:url(#SVGID_256_);fill:#EBEBEB;}
	.st219{clip-path:url(#SVGID_258_);fill:#EBEBEB;}
	.st220{clip-path:url(#SVGID_260_);fill:#EBEBEB;}
	.st221{fill:url(#SVGID_261_);}
	.st222{fill:url(#SVGID_262_);}
	.st223{fill:url(#SVGID_263_);}
	.st224{clip-path:url(#SVGID_265_);}
	.st225{clip-path:url(#SVGID_267_);fill:#EBEBEB;}
	.st226{clip-path:url(#SVGID_269_);fill:#EBEBEB;}
	.st227{clip-path:url(#SVGID_271_);fill:#EBEBEB;}
	.st228{clip-path:url(#SVGID_273_);fill:#EBEBEB;}
	.st229{clip-path:url(#SVGID_275_);fill:#EBEBEB;}
	.st230{clip-path:url(#SVGID_277_);fill:#EBEBEB;}
	.st231{clip-path:url(#SVGID_279_);fill:#EBEBEB;}
	.st232{clip-path:url(#SVGID_281_);fill:#EBEBEB;}
	.st233{clip-path:url(#SVGID_283_);fill:#EBEBEB;}
	.st234{clip-path:url(#SVGID_285_);fill:#EBEBEB;}
	.st235{clip-path:url(#SVGID_287_);fill:#EBEBEB;}
	.st236{clip-path:url(#SVGID_289_);fill:#EBEBEB;}
	.st237{clip-path:url(#SVGID_291_);fill:#EBEBEB;}
	.st238{clip-path:url(#SVGID_293_);fill:#EBEBEB;}
	.st239{clip-path:url(#SVGID_295_);fill:#EBEBEB;}
	.st240{clip-path:url(#SVGID_297_);fill:#EBEBEB;}
	.st241{clip-path:url(#SVGID_299_);fill:#EBEBEB;}
	.st242{clip-path:url(#SVGID_301_);fill:#EBEBEB;}
	.st243{clip-path:url(#SVGID_303_);fill:#EBEBEB;}
	.st244{clip-path:url(#SVGID_305_);fill:#EBEBEB;}
	.st245{clip-path:url(#SVGID_307_);fill:#EBEBEB;}
	.st246{clip-path:url(#SVGID_309_);fill:#EBEBEB;}
	.st247{clip-path:url(#SVGID_311_);fill:#EBEBEB;}
	.st248{clip-path:url(#SVGID_313_);fill:#EBEBEB;}
	.st249{clip-path:url(#SVGID_315_);fill:#EBEBEB;}
	.st250{fill:url(#SVGID_316_);}
	.st251{fill:url(#SVGID_317_);}
	.st252{fill:url(#SVGID_318_);}
</style>
<g>
	<linearGradient id="SVGID_2_" gradientUnits="userSpaceOnUse" x1="250" y1="94.1824" x2="250" y2="295.9497">
		<stop  offset="0" style="stop-color:#27DFD2"/>
		<stop  offset="1" style="stop-color:#3083D2"/>
	</linearGradient>
	<path style="fill:url(#SVGID_2_);" d="M367.69,242.3l-22.77-100.04c-1.38-6.04-5.93-10.84-11.9-12.53l-55.47-15.68
		c-6.91-1.95-14.1,0.55-18.31,6.37c-4.21,5.82-4.33,13.43-0.3,19.39l24.8,36.68l-22.35,50.16c-0.13,0.3-0.24,0.6-0.33,0.91
		c-1.99,6.8-7.65,9.15-12.3,9.06c-4.65-0.08-10.23-2.62-11.98-9.48c-0.08-0.32-0.18-0.63-0.31-0.93l-20.18-49.75l24.78-36.65
		c4.02-5.95,3.91-13.56-0.3-19.39c-4.21-5.82-11.4-8.32-18.31-6.37l-55.47,15.68c-5.96,1.69-10.52,6.49-11.9,12.53L132.31,242.3
		c-1.83,8.06,2.18,15.99,9.77,19.28c2.24,0.97,4.56,1.44,6.85,1.44c5.44,0,10.64-2.66,13.9-7.49l43.74-64.7l16.37,40.37
		c3.2,11.67,13.4,19.61,25.55,19.83c0.17,0,0.33,0,0.5,0c11.94,0,22.18-7.53,25.73-18.93l18.52-41.56l43.93,64.98
		c3.26,4.83,8.46,7.49,13.9,7.49c2.28,0,4.6-0.47,6.84-1.44C365.51,258.28,369.52,250.36,367.69,242.3z M150.89,247.46
		c-0.78,1.15-1.81,1.45-3.09,0.9c-1.27-0.55-1.76-1.52-1.45-2.87l22.77-100.04c0.2-0.9,0.88-1.61,1.77-1.86l55.47-15.68
		c1.47-0.42,2.34,0.41,2.72,0.95c0.38,0.53,0.9,1.61,0.05,2.88l-26.37,39.01c-0.42,0.48-0.78,1-1.06,1.57L150.89,247.46z
		 M352.19,248.36c-1.27,0.55-2.31,0.25-3.08-0.9l-50.64-74.9c-0.31-0.63-0.7-1.23-1.18-1.75l-26.42-39.07
		c-0.86-1.27-0.34-2.35,0.05-2.88c0.31-0.43,0.94-1.06,1.95-1.06c0.24,0,0.49,0.03,0.77,0.11l55.47,15.68
		c0.89,0.25,1.56,0.96,1.77,1.86l22.77,100.04C353.95,246.84,353.46,247.81,352.19,248.36z"/>
	<g>
		<g>
			<path class="st0" d="M62.29,386.05l-23.53-64.46l-4.91,63.9h-5.91l6.36-75.17h6.25l24.54,68.37l24.65-68.37h6.13l6.36,75.17
				h-5.91l-4.91-63.9l-23.42,64.46H62.29z"/>
			<path class="st0" d="M112.48,362.4c0-7.47,1.79-13.27,5.35-17.62c3.57-4.35,8.7-6.58,15.28-6.58c6.58,0,11.71,2.23,15.28,6.58
				c3.57,4.35,5.35,10.15,5.35,17.62c0,7.47-1.79,13.38-5.35,17.73c-3.57,4.35-8.7,6.47-15.28,6.47c-6.58,0-11.71-2.12-15.28-6.47
				C114.27,375.79,112.48,369.87,112.48,362.4z M133.11,381.47c9.48,0,14.5-7.03,14.5-18.96c0-11.6-4.68-19.18-14.5-19.18
				c-9.37,0-14.39,7.03-14.39,19.07C118.73,374,123.3,381.47,133.11,381.47z"/>
			<path class="st0" d="M165.31,385.49v-43.27c5.69-2.68,11.71-4.02,18.07-4.02c10.71,0,17.51,5.24,17.51,16.95v30.33h-5.91v-29.44
				c0-8.48-3.9-12.71-11.82-12.71c-4.02,0-8.03,0.67-11.93,2.12v40.04H165.31z"/>
			<path class="st0" d="M217.3,318.68c2.79,0,4.13,1.34,4.13,3.9c0,2.45-1.23,3.68-3.68,3.68c-2.79,0-4.24-1.34-4.24-3.9
				C213.51,319.91,214.74,318.68,217.3,318.68z M220.31,339.21v46.28h-5.91v-46.28H220.31z"/>
			<path class="st0" d="M238.38,380.36c-4.57-4.13-6.91-10.26-6.91-18.4c0-14.61,8.25-23.75,20.74-23.75
				c10.71,0,17.51,6.69,17.51,19.52v5.02H237.6c0.34,12.83,8.36,18.74,19.18,18.74c3.46,0,7.92-0.67,13.27-1.9l-0.34,5.02
				c-5.02,1.34-9.48,2.01-13.38,2.01C249.09,386.6,243.06,384.48,238.38,380.36z M263.59,358.16v-1.23
				c0-8.81-4.35-13.83-11.49-13.83c-7.58,0-13.16,5.58-14.39,15.06H263.59z"/>
			<path class="st0" d="M306.17,385.49h-15.73l-15.06-46.28h13.38l9.7,35.91l9.93-35.91h12.71L306.17,385.49z"/>
			<path class="st0" d="M331.26,380.25c-5.02-4.24-7.58-10.26-7.58-17.96c0-7.25,2.12-13.05,6.47-17.4
				c4.35-4.46,10.04-6.69,17.18-6.69c12.83,0,20.41,7.7,20.41,22.75v5.02h-31.11c1.56,6.8,7.14,10.26,16.73,10.26
				c4.13,0,8.7-0.45,13.83-1.45l-0.45,10.15c-5.02,1.12-10.26,1.67-15.61,1.67C342.97,386.6,336.28,384.48,331.26,380.25z
				 M355.12,357.5v-0.67c0-5.24-3.12-8.81-8.14-8.81c-5.24,0-8.92,3.79-10.26,9.48H355.12z"/>
			<path class="st0" d="M377.28,385.49v-41.93c7.14-3.57,14.61-5.35,22.3-5.35c12.04,0,19.63,5.46,19.63,17.62v29.67h-12.38V358.5
				c0-6.8-2.9-10.15-8.59-10.15c-2.68,0-5.58,0.67-8.59,1.9v35.24H377.28z"/>
			<path class="st0" d="M472.06,307.87v75.73c-6.8,2.01-13.16,3.01-19.07,3.01c-15.72,0-25.09-8.59-25.09-24.76
				c0-15.5,8.36-23.64,22.08-23.64c3.68,0,6.91,0.56,9.7,1.67v-29.55L472.06,307.87z M459.68,349.69c-2.12-0.89-4.46-1.34-7.03-1.34
				c-7.92,0-11.93,4.57-11.93,13.83c0,9.7,4.68,14.28,12.27,14.28c2.57,0,4.8-0.33,6.69-1V349.69z"/>
		</g>
	</g>
</g>
</svg>
