<svg width="18" height="17" viewBox="0 0 18 17" fill="none" xmlns="http://www.w3.org/2000/svg">
<path d="M1.58008 9.17567V7.78522C1.58008 6.96359 2.2516 6.28416 3.08113 6.28416C4.51109 6.28416 5.09571 5.27293 4.37678 4.03258C3.96597 3.32155 4.21087 2.39722 4.9298 1.9864L6.29655 1.20428C6.92067 0.832963 7.7265 1.05417 8.09782 1.67829L8.18472 1.8284C8.89575 3.06874 10.065 3.06874 10.7839 1.8284L10.8708 1.67829C11.2421 1.05417 12.048 0.832963 12.6721 1.20428L14.0388 1.9864C14.7578 2.39722 15.0027 3.32155 14.5919 4.03258C13.8729 5.27293 14.4576 6.28416 15.8875 6.28416C16.7091 6.28416 17.3886 6.95569 17.3886 7.78522V9.17567C17.3886 9.9973 16.717 10.6767 15.8875 10.6767C14.4576 10.6767 13.8729 11.688 14.5919 12.9283C15.0027 13.6472 14.7578 14.5637 14.0388 14.9745L12.6721 15.7566C12.048 16.1279 11.2421 15.9067 10.8708 15.2826L10.7839 15.1325C10.0729 13.8921 8.90365 13.8921 8.18472 15.1325L8.09782 15.2826C7.7265 15.9067 6.92067 16.1279 6.29655 15.7566L4.9298 14.9745C4.21087 14.5637 3.96597 13.6393 4.37678 12.9283C5.09571 11.688 4.51109 10.6767 3.08113 10.6767C2.2516 10.6767 1.58008 9.9973 1.58008 9.17567Z" stroke="#4F54A1" stroke-width="1.18504" stroke-miterlimit="10" stroke-linecap="round" stroke-linejoin="round"/>
</svg>
