<svg width="13" height="16" viewBox="0 0 13 16" fill="none" xmlns="http://www.w3.org/2000/svg">
<ellipse cx="6.6952" cy="4.45852" rx="3.58436" ry="3.58352" stroke="#4F54A1" stroke-width="1.19" stroke-linecap="round" stroke-linejoin="round"/>
<path fill-rule="evenodd" clip-rule="evenodd" d="M1.00966 13.0262C1.00869 12.7742 1.06505 12.5254 1.17445 12.2985C1.51778 11.612 2.48597 11.2481 3.28936 11.0834C3.86877 10.9598 4.45618 10.8772 5.04721 10.8362C6.14147 10.7401 7.24205 10.7401 8.33631 10.8362C8.92729 10.8776 9.51467 10.9602 10.0942 11.0834C10.8975 11.2481 11.8657 11.5777 12.2091 12.2985C12.4291 12.7611 12.4291 13.2981 12.2091 13.7607C11.8657 14.4815 10.8975 14.8111 10.0942 14.969C9.51543 15.0977 8.92781 15.1826 8.33631 15.223C7.44567 15.2984 6.55088 15.3122 5.65834 15.2642C5.45234 15.2642 5.25321 15.2642 5.04721 15.223C4.45792 15.1831 3.87255 15.0982 3.29623 14.969C2.48597 14.8111 1.52465 14.4815 1.17445 13.7607C1.06561 13.5312 1.00931 13.2802 1.00966 13.0262Z" stroke="#4F54A1" stroke-width="1.19" stroke-linecap="round" stroke-linejoin="round"/>
</svg>
