<svg width="13" height="16" viewBox="0 0 13 16" fill="none" xmlns="http://www.w3.org/2000/svg">
<ellipse cx="6.71905" cy="4.85186" rx="3.18535" ry="3.18535" stroke="#3083D2" stroke-width="1.42205" stroke-linecap="round" stroke-linejoin="round"/>
<path fill-rule="evenodd" clip-rule="evenodd" d="M1.66642 12.4677C1.66557 12.2438 1.71565 12.0226 1.81288 11.8209C2.11799 11.2106 2.9784 10.8872 3.69236 10.7408C4.20726 10.6309 4.72928 10.5575 5.25452 10.5211C6.22697 10.4357 7.20504 10.4357 8.17748 10.5211C8.70268 10.5579 9.22467 10.6313 9.73965 10.7408C10.4536 10.8872 11.314 11.1801 11.6191 11.8209C11.8147 12.2321 11.8147 12.7094 11.6191 13.1206C11.314 13.7614 10.4536 14.0543 9.73965 14.1946C9.22535 14.3091 8.70314 14.3845 8.17748 14.4204C7.38599 14.4875 6.5908 14.4997 5.79762 14.457C5.61455 14.457 5.43759 14.457 5.25452 14.4204C4.73083 14.385 4.21062 14.3095 3.69846 14.1946C2.9784 14.0543 2.12409 13.7614 1.81288 13.1206C1.71614 12.9166 1.66611 12.6935 1.66642 12.4677Z" stroke="#3083D2" stroke-width="1.42205" stroke-linecap="round" stroke-linejoin="round"/>
</svg>
