<svg width="49" height="40" viewBox="0 0 49 40" fill="none" xmlns="http://www.w3.org/2000/svg">
<path d="M43.5659 10.6014C43.5964 11.0278 43.5964 11.4543 43.5964 11.8806C43.5964 24.8856 33.698 39.8705 15.6066 39.8705C10.033 39.8705 4.85534 38.2562 0.5 35.4543C1.29191 35.5456 2.05325 35.5761 2.87562 35.5761C7.47453 35.5761 11.7081 34.0228 15.0888 31.3731C10.7639 31.2816 7.13956 28.4492 5.89081 24.5507C6.5 24.642 7.10909 24.7029 7.74875 24.7029C8.63197 24.7029 9.51528 24.5811 10.3376 24.368C5.82997 23.4542 2.44916 19.4948 2.44916 14.7131V14.5913C3.75875 15.3223 5.28172 15.7791 6.89581 15.84C4.24606 14.0735 2.51009 11.0583 2.51009 7.64709C2.51009 5.81971 2.99731 4.14459 3.85016 2.68265C8.69281 8.65218 15.972 12.5506 24.1344 12.9771C23.9821 12.2461 23.8907 11.4847 23.8907 10.7233C23.8907 5.30193 28.2765 0.885742 33.7283 0.885742C36.5607 0.885742 39.1191 2.07355 40.9161 3.99234C43.1394 3.56596 45.2713 2.74359 47.1597 1.61671C46.4287 3.90102 44.8754 5.8198 42.8349 7.03799C44.8146 6.8249 46.7334 6.27655 48.4998 5.51521C47.1599 7.46437 45.4847 9.20034 43.5659 10.6014Z" fill="#1D1E26"/>
</svg>
