<svg width="7" height="10" viewBox="0 0 7 10" fill="none" xmlns="http://www.w3.org/2000/svg">
<path d="M5.54673 0.863965C4.99124 0.376987 4.25799 0.110352 3.48031 0.110352C2.70262 0.110352 1.96938 0.378838 1.41389 0.863965C0.83618 1.36946 0.5177 2.04901 0.5177 2.7767V2.91742C0.5177 2.9989 0.584359 3.06555 0.665831 3.06555H1.55461C1.63608 3.06555 1.70274 2.9989 1.70274 2.91742V2.7767C1.70274 1.96013 2.5008 1.2954 3.48031 1.2954C4.45982 1.2954 5.25787 1.96013 5.25787 2.7767C5.25787 3.35256 4.85051 3.88027 4.21911 4.12283C3.82656 4.27282 3.49327 4.53575 3.25441 4.88015C3.01185 5.23196 2.88593 5.65413 2.88593 6.08186V6.47996C2.88593 6.56143 2.95259 6.62809 3.03407 6.62809H3.92285C4.00432 6.62809 4.07098 6.56143 4.07098 6.47996V6.05964C4.07194 5.87989 4.12704 5.70459 4.2291 5.55662C4.33116 5.40865 4.47544 5.29486 4.64313 5.23011C5.73559 4.80979 6.44107 3.84694 6.44107 2.7767C6.44292 2.04901 6.12444 1.36946 5.54673 0.863965ZM2.73966 8.55379C2.73966 8.75022 2.81769 8.93861 2.95659 9.07751C3.09549 9.21641 3.28387 9.29444 3.48031 9.29444C3.67674 9.29444 3.86513 9.21641 4.00403 9.07751C4.14293 8.93861 4.22096 8.75022 4.22096 8.55379C4.22096 8.35735 4.14293 8.16896 4.00403 8.03007C3.86513 7.89117 3.67674 7.81313 3.48031 7.81313C3.28387 7.81313 3.09549 7.89117 2.95659 8.03007C2.81769 8.16896 2.73966 8.35735 2.73966 8.55379Z" fill="#4F54A1"/>
</svg>
